<?xml version="1.0" encoding="UTF-8" standalone="no"?>
<!DOCTYPE svg PUBLIC "-//W3C//DTD SVG 1.1//EN"
 "http://www.w3.org/Graphics/SVG/1.1/DTD/svg11.dtd">
<!-- Generated by graphviz version 2.47.3 (20210619.1520)
 -->
<!-- Title: dependencies Pages: 1 -->
<svg width="3117pt" height="247pt"
 viewBox="0.00 0.00 3117.00 246.80" xmlns="http://www.w3.org/2000/svg" xmlns:xlink="http://www.w3.org/1999/xlink">
<g id="graph0" class="graph" transform="scale(1 1) rotate(0) translate(4 242.8)">
<title>dependencies</title>
<polygon fill="white" stroke="transparent" points="-4,4 -4,-242.8 3113,-242.8 3113,4 -4,4"/>
<text text-anchor="middle" x="1554.5" y="-8.2" font-family="sans-serif" font-size="14.00">dependencies</text>
<g id="clust1" class="cluster">
<title>cluster_CoreModule</title>
<polygon fill="none" stroke="black" stroke-dasharray="1,5" points="8,-32.8 8,-230.8 3101,-230.8 3101,-32.8 8,-32.8"/>
</g>
<g id="clust2" class="cluster">
<title>cluster_CoreModule_declarations</title>
<polygon fill="none" stroke="black" points="1102,-40.8 1102,-92.8 3093,-92.8 3093,-40.8 1102,-40.8"/>
</g>
<g id="clust17" class="cluster">
<title>cluster_CoreModule_exports</title>
<polygon fill="none" stroke="black" points="1638,-170.8 1638,-222.8 1770,-222.8 1770,-170.8 1638,-170.8"/>
</g>
<g id="clust19" class="cluster">
<title>cluster_CoreModule_providers</title>
<polygon fill="none" stroke="black" points="750,-40.8 750,-92.8 1094,-92.8 1094,-40.8 750,-40.8"/>
</g>
<g id="clust16" class="cluster">
<title>cluster_CoreModule_imports</title>
<polygon fill="none" stroke="black" points="16,-40.8 16,-92.8 742,-92.8 742,-40.8 16,-40.8"/>
</g>
<!-- LoginComponent -->
<g id="node1" class="node">
<title>LoginComponent</title>
<polygon fill="#ffffb3" stroke="black" points="3085.28,-84.8 2970.72,-84.8 2970.72,-48.8 3085.28,-48.8 3085.28,-84.8"/>
<text text-anchor="middle" x="3028" y="-62.6" font-family="Times,serif" font-size="14.00">LoginComponent</text>
</g>
<!-- CoreModule -->
<g id="node14" class="node">
<title>CoreModule</title>
<polygon fill="#8dd3c7" stroke="black" points="1747.26,-149.8 1744.26,-153.8 1723.26,-153.8 1720.26,-149.8 1660.74,-149.8 1660.74,-113.8 1747.26,-113.8 1747.26,-149.8"/>
<text text-anchor="middle" x="1704" y="-127.6" font-family="Times,serif" font-size="14.00">CoreModule</text>
</g>
<!-- LoginComponent&#45;&gt;CoreModule -->
<g id="edge1" class="edge">
<title>LoginComponent&#45;&gt;CoreModule</title>
<path fill="none" stroke="black" d="M3028,-84.95C3028,-108.56 3028,-146.8 3028,-146.8 3028,-146.8 1757.3,-146.8 1757.3,-146.8"/>
<polygon fill="black" stroke="black" points="1757.3,-143.3 1747.3,-146.8 1757.3,-150.3 1757.3,-143.3"/>
</g>
<!-- LogoutComponent -->
<g id="node2" class="node">
<title>LogoutComponent</title>
<polygon fill="#ffffb3" stroke="black" points="2952.78,-84.8 2831.22,-84.8 2831.22,-48.8 2952.78,-48.8 2952.78,-84.8"/>
<text text-anchor="middle" x="2892" y="-62.6" font-family="Times,serif" font-size="14.00">LogoutComponent</text>
</g>
<!-- LogoutComponent&#45;&gt;CoreModule -->
<g id="edge2" class="edge">
<title>LogoutComponent&#45;&gt;CoreModule</title>
<path fill="none" stroke="black" d="M2892,-84.81C2892,-107.29 2892,-142.8 2892,-142.8 2892,-142.8 1757.34,-142.8 1757.34,-142.8"/>
<polygon fill="black" stroke="black" points="1757.34,-139.3 1747.34,-142.8 1757.34,-146.3 1757.34,-139.3"/>
</g>
<!-- PublicHomeComponent -->
<g id="node3" class="node">
<title>PublicHomeComponent</title>
<polygon fill="#ffffb3" stroke="black" points="2812.82,-84.8 2661.18,-84.8 2661.18,-48.8 2812.82,-48.8 2812.82,-84.8"/>
<text text-anchor="middle" x="2737" y="-62.6" font-family="Times,serif" font-size="14.00">PublicHomeComponent</text>
</g>
<!-- PublicHomeComponent&#45;&gt;CoreModule -->
<g id="edge3" class="edge">
<title>PublicHomeComponent&#45;&gt;CoreModule</title>
<path fill="none" stroke="black" d="M2737,-84.84C2737,-106.46 2737,-139.8 2737,-139.8 2737,-139.8 1757.4,-139.8 1757.4,-139.8"/>
<polygon fill="black" stroke="black" points="1757.4,-136.3 1747.4,-139.8 1757.4,-143.3 1757.4,-136.3"/>
</g>
<!-- PublicNavbarComponent -->
<g id="node4" class="node">
<title>PublicNavbarComponent</title>
<polygon fill="#ffffb3" stroke="black" points="2643.31,-84.8 2484.69,-84.8 2484.69,-48.8 2643.31,-48.8 2643.31,-84.8"/>
<text text-anchor="middle" x="2564" y="-62.6" font-family="Times,serif" font-size="14.00">PublicNavbarComponent</text>
</g>
<!-- PublicNavbarComponent&#45;&gt;CoreModule -->
<g id="edge4" class="edge">
<title>PublicNavbarComponent&#45;&gt;CoreModule</title>
<path fill="none" stroke="black" d="M2564,-84.93C2564,-105.37 2564,-135.8 2564,-135.8 2564,-135.8 1757.53,-135.8 1757.53,-135.8"/>
<polygon fill="black" stroke="black" points="1757.53,-132.3 1747.53,-135.8 1757.53,-139.3 1757.53,-132.3"/>
</g>
<!-- PublicFooterComponent -->
<g id="node5" class="node">
<title>PublicFooterComponent</title>
<polygon fill="#ffffb3" stroke="black" points="2466.66,-84.8 2313.34,-84.8 2313.34,-48.8 2466.66,-48.8 2466.66,-84.8"/>
<text text-anchor="middle" x="2390" y="-62.6" font-family="Times,serif" font-size="14.00">PublicFooterComponent</text>
</g>
<!-- PublicFooterComponent&#45;&gt;CoreModule -->
<g id="edge5" class="edge">
<title>PublicFooterComponent&#45;&gt;CoreModule</title>
<path fill="none" stroke="black" d="M2390,-84.91C2390,-104.14 2390,-131.8 2390,-131.8 2390,-131.8 1757.43,-131.8 1757.43,-131.8"/>
<polygon fill="black" stroke="black" points="1757.43,-128.3 1747.43,-131.8 1757.43,-135.3 1757.43,-128.3"/>
</g>
<!-- P404Component -->
<g id="node6" class="node">
<title>P404Component</title>
<polygon fill="#ffffb3" stroke="black" points="2295.12,-84.8 2184.88,-84.8 2184.88,-48.8 2295.12,-48.8 2295.12,-84.8"/>
<text text-anchor="middle" x="2240" y="-62.6" font-family="Times,serif" font-size="14.00">P404Component</text>
</g>
<!-- P404Component&#45;&gt;CoreModule -->
<g id="edge6" class="edge">
<title>P404Component&#45;&gt;CoreModule</title>
<path fill="none" stroke="black" d="M2240,-85.07C2240,-103.36 2240,-128.8 2240,-128.8 2240,-128.8 1757.41,-128.8 1757.41,-128.8"/>
<polygon fill="black" stroke="black" points="1757.41,-125.3 1747.41,-128.8 1757.41,-132.3 1757.41,-125.3"/>
</g>
<!-- P403Component -->
<g id="node7" class="node">
<title>P403Component</title>
<polygon fill="#ffffb3" stroke="black" points="2167.12,-84.8 2056.88,-84.8 2056.88,-48.8 2167.12,-48.8 2167.12,-84.8"/>
<text text-anchor="middle" x="2112" y="-62.6" font-family="Times,serif" font-size="14.00">P403Component</text>
</g>
<!-- P403Component&#45;&gt;CoreModule -->
<g id="edge7" class="edge">
<title>P403Component&#45;&gt;CoreModule</title>
<path fill="none" stroke="black" d="M2112,-84.83C2112,-101.86 2112,-124.8 2112,-124.8 2112,-124.8 1757.28,-124.8 1757.28,-124.8"/>
<polygon fill="black" stroke="black" points="1757.28,-121.3 1747.28,-124.8 1757.28,-128.3 1757.28,-121.3"/>
</g>
<!-- P401Component -->
<g id="node8" class="node">
<title>P401Component</title>
<polygon fill="#ffffb3" stroke="black" points="2039.12,-84.8 1928.88,-84.8 1928.88,-48.8 2039.12,-48.8 2039.12,-84.8"/>
<text text-anchor="middle" x="1984" y="-62.6" font-family="Times,serif" font-size="14.00">P401Component</text>
</g>
<!-- P401Component&#45;&gt;CoreModule -->
<g id="edge8" class="edge">
<title>P401Component&#45;&gt;CoreModule</title>
<path fill="none" stroke="black" d="M1984,-84.81C1984,-100.85 1984,-121.8 1984,-121.8 1984,-121.8 1757.44,-121.8 1757.44,-121.8"/>
<polygon fill="black" stroke="black" points="1757.44,-118.3 1747.44,-121.8 1757.44,-125.3 1757.44,-118.3"/>
</g>
<!-- E500Component -->
<g id="node9" class="node">
<title>E500Component</title>
<polygon fill="#ffffb3" stroke="black" points="1910.39,-84.8 1799.61,-84.8 1799.61,-48.8 1910.39,-48.8 1910.39,-84.8"/>
<text text-anchor="middle" x="1855" y="-62.6" font-family="Times,serif" font-size="14.00">E500Component</text>
</g>
<!-- E500Component&#45;&gt;CoreModule -->
<g id="edge9" class="edge">
<title>E500Component&#45;&gt;CoreModule</title>
<path fill="none" stroke="black" d="M1855,-84.92C1855,-99.58 1855,-117.8 1855,-117.8 1855,-117.8 1757.27,-117.8 1757.27,-117.8"/>
<polygon fill="black" stroke="black" points="1757.27,-114.3 1747.27,-117.8 1757.27,-121.3 1757.27,-114.3"/>
</g>
<!-- PrivateHomeComponent -->
<g id="node10" class="node">
<title>PrivateHomeComponent</title>
<polygon fill="#ffffb3" stroke="black" points="1781.7,-84.8 1626.3,-84.8 1626.3,-48.8 1781.7,-48.8 1781.7,-84.8"/>
<text text-anchor="middle" x="1704" y="-62.6" font-family="Times,serif" font-size="14.00">PrivateHomeComponent</text>
</g>
<!-- PrivateHomeComponent&#45;&gt;CoreModule -->
<g id="edge10" class="edge">
<title>PrivateHomeComponent&#45;&gt;CoreModule</title>
<path fill="none" stroke="black" d="M1704,-84.91C1704,-84.91 1704,-103.79 1704,-103.79"/>
<polygon fill="black" stroke="black" points="1700.5,-103.79 1704,-113.79 1707.5,-103.79 1700.5,-103.79"/>
</g>
<!-- PrivateNavbarComponent -->
<g id="node11" class="node">
<title>PrivateNavbarComponent</title>
<polygon fill="#ffffb3" stroke="black" points="1608.18,-84.8 1445.82,-84.8 1445.82,-48.8 1608.18,-48.8 1608.18,-84.8"/>
<text text-anchor="middle" x="1527" y="-62.6" font-family="Times,serif" font-size="14.00">PrivateNavbarComponent</text>
</g>
<!-- PrivateNavbarComponent&#45;&gt;CoreModule -->
<g id="edge11" class="edge">
<title>PrivateNavbarComponent&#45;&gt;CoreModule</title>
<path fill="none" stroke="black" d="M1527,-84.92C1527,-99.58 1527,-117.8 1527,-117.8 1527,-117.8 1650.7,-117.8 1650.7,-117.8"/>
<polygon fill="black" stroke="black" points="1650.7,-121.3 1660.7,-117.8 1650.7,-114.3 1650.7,-121.3"/>
</g>
<!-- PrivateFooterComponent -->
<g id="node12" class="node">
<title>PrivateFooterComponent</title>
<polygon fill="#ffffb3" stroke="black" points="1427.54,-84.8 1270.46,-84.8 1270.46,-48.8 1427.54,-48.8 1427.54,-84.8"/>
<text text-anchor="middle" x="1349" y="-62.6" font-family="Times,serif" font-size="14.00">PrivateFooterComponent</text>
</g>
<!-- PrivateFooterComponent&#45;&gt;CoreModule -->
<g id="edge12" class="edge">
<title>PrivateFooterComponent&#45;&gt;CoreModule</title>
<path fill="none" stroke="black" d="M1349,-84.81C1349,-100.85 1349,-121.8 1349,-121.8 1349,-121.8 1650.47,-121.8 1650.47,-121.8"/>
<polygon fill="black" stroke="black" points="1650.47,-125.3 1660.47,-121.8 1650.47,-118.3 1650.47,-125.3"/>
</g>
<!-- DashboardComponent -->
<g id="node13" class="node">
<title>DashboardComponent</title>
<polygon fill="#ffffb3" stroke="black" points="1251.97,-84.8 1110.03,-84.8 1110.03,-48.8 1251.97,-48.8 1251.97,-84.8"/>
<text text-anchor="middle" x="1181" y="-62.6" font-family="Times,serif" font-size="14.00">DashboardComponent</text>
</g>
<!-- DashboardComponent&#45;&gt;CoreModule -->
<g id="edge13" class="edge">
<title>DashboardComponent&#45;&gt;CoreModule</title>
<path fill="none" stroke="black" d="M1181,-84.83C1181,-101.86 1181,-124.8 1181,-124.8 1181,-124.8 1650.31,-124.8 1650.31,-124.8"/>
<polygon fill="black" stroke="black" points="1650.31,-128.3 1660.31,-124.8 1650.31,-121.3 1650.31,-128.3"/>
</g>
<!-- CommonModule  -->
<g id="node20" class="node">
<title>CommonModule </title>
<polygon fill="#fb8072" stroke="black" points="1761.67,-214.8 1646.33,-214.8 1646.33,-178.8 1761.67,-178.8 1761.67,-214.8"/>
<text text-anchor="middle" x="1704" y="-192.6" font-family="Times,serif" font-size="14.00">CommonModule </text>
</g>
<!-- CoreModule&#45;&gt;CommonModule  -->
<g id="edge19" class="edge">
<title>CoreModule&#45;&gt;CommonModule </title>
<path fill="none" stroke="black" stroke-dasharray="5,2" d="M1704,-149.91C1704,-149.91 1704,-168.79 1704,-168.79"/>
<polygon fill="black" stroke="black" points="1700.5,-168.79 1704,-178.79 1707.5,-168.79 1700.5,-168.79"/>
</g>
<!-- BrowserModule -->
<g id="node15" class="node">
<title>BrowserModule</title>
<polygon fill="#8dd3c7" stroke="black" points="734.47,-84.8 731.47,-88.8 710.47,-88.8 707.47,-84.8 627.53,-84.8 627.53,-48.8 734.47,-48.8 734.47,-84.8"/>
<text text-anchor="middle" x="681" y="-62.6" font-family="Times,serif" font-size="14.00">BrowserModule</text>
</g>
<!-- BrowserModule&#45;&gt;CoreModule -->
<g id="edge14" class="edge">
<title>BrowserModule&#45;&gt;CoreModule</title>
<path fill="none" stroke="black" d="M681,-84.91C681,-104.14 681,-131.8 681,-131.8 681,-131.8 1650.7,-131.8 1650.7,-131.8"/>
<polygon fill="black" stroke="black" points="1650.7,-135.3 1660.7,-131.8 1650.7,-128.3 1650.7,-135.3"/>
</g>
<!-- CommonModule -->
<g id="node16" class="node">
<title>CommonModule</title>
<polygon fill="#8dd3c7" stroke="black" points="609.67,-84.8 606.67,-88.8 585.67,-88.8 582.67,-84.8 498.33,-84.8 498.33,-48.8 609.67,-48.8 609.67,-84.8"/>
<text text-anchor="middle" x="554" y="-62.6" font-family="Times,serif" font-size="14.00">CommonModule</text>
</g>
<!-- CommonModule&#45;&gt;CoreModule -->
<g id="edge15" class="edge">
<title>CommonModule&#45;&gt;CoreModule</title>
<path fill="none" stroke="black" d="M554,-84.93C554,-105.37 554,-135.8 554,-135.8 554,-135.8 1650.67,-135.8 1650.67,-135.8"/>
<polygon fill="black" stroke="black" points="1650.67,-139.3 1660.67,-135.8 1650.67,-132.3 1650.67,-139.3"/>
</g>
<!-- BrowserAnimationsModule -->
<g id="node17" class="node">
<title>BrowserAnimationsModule</title>
<polygon fill="#8dd3c7" stroke="black" points="480.3,-84.8 477.3,-88.8 456.3,-88.8 453.3,-84.8 307.7,-84.8 307.7,-48.8 480.3,-48.8 480.3,-84.8"/>
<text text-anchor="middle" x="394" y="-62.6" font-family="Times,serif" font-size="14.00">BrowserAnimationsModule</text>
</g>
<!-- BrowserAnimationsModule&#45;&gt;CoreModule -->
<g id="edge16" class="edge">
<title>BrowserAnimationsModule&#45;&gt;CoreModule</title>
<path fill="none" stroke="black" d="M394,-84.84C394,-106.46 394,-139.8 394,-139.8 394,-139.8 1650.41,-139.8 1650.41,-139.8"/>
<polygon fill="black" stroke="black" points="1650.41,-143.3 1660.41,-139.8 1650.41,-136.3 1650.41,-143.3"/>
</g>
<!-- AppRoutingModule -->
<g id="node18" class="node">
<title>AppRoutingModule</title>
<polygon fill="#8dd3c7" stroke="black" points="289.27,-84.8 286.27,-88.8 265.27,-88.8 262.27,-84.8 160.73,-84.8 160.73,-48.8 289.27,-48.8 289.27,-84.8"/>
<text text-anchor="middle" x="225" y="-62.6" font-family="Times,serif" font-size="14.00">AppRoutingModule</text>
</g>
<!-- AppRoutingModule&#45;&gt;CoreModule -->
<g id="edge17" class="edge">
<title>AppRoutingModule&#45;&gt;CoreModule</title>
<path fill="none" stroke="black" d="M225,-84.81C225,-107.29 225,-142.8 225,-142.8 225,-142.8 1650.54,-142.8 1650.54,-142.8"/>
<polygon fill="black" stroke="black" points="1650.54,-146.3 1660.54,-142.8 1650.54,-139.3 1650.54,-146.3"/>
</g>
<!-- HttpClientModule -->
<g id="node19" class="node">
<title>HttpClientModule</title>
<polygon fill="#8dd3c7" stroke="black" points="142.16,-84.8 139.16,-88.8 118.16,-88.8 115.16,-84.8 23.84,-84.8 23.84,-48.8 142.16,-48.8 142.16,-84.8"/>
<text text-anchor="middle" x="83" y="-62.6" font-family="Times,serif" font-size="14.00">HttpClientModule</text>
</g>
<!-- HttpClientModule&#45;&gt;CoreModule -->
<g id="edge18" class="edge">
<title>HttpClientModule&#45;&gt;CoreModule</title>
<path fill="none" stroke="black" d="M83,-84.95C83,-108.56 83,-146.8 83,-146.8 83,-146.8 1650.64,-146.8 1650.64,-146.8"/>
<polygon fill="black" stroke="black" points="1650.64,-150.3 1660.64,-146.8 1650.64,-143.3 1650.64,-150.3"/>
</g>
<!-- HTTP_INTERCEPTOR_PROVIDERS -->
<g id="node21" class="node">
<title>HTTP_INTERCEPTOR_PROVIDERS</title>
<ellipse fill="#fdb462" stroke="black" cx="922" cy="-66.8" rx="163.84" ry="18"/>
<text text-anchor="middle" x="922" y="-62.6" font-family="Times,serif" font-size="14.00">HTTP_INTERCEPTOR_PROVIDERS</text>
</g>
<!-- HTTP_INTERCEPTOR_PROVIDERS&#45;&gt;CoreModule -->
<g id="edge20" class="edge">
<title>HTTP_INTERCEPTOR_PROVIDERS&#45;&gt;CoreModule</title>
<path fill="none" stroke="black" d="M922,-85.07C922,-103.36 922,-128.8 922,-128.8 922,-128.8 1650.56,-128.8 1650.56,-128.8"/>
<polygon fill="black" stroke="black" points="1650.56,-132.3 1660.56,-128.8 1650.56,-125.3 1650.56,-132.3"/>
</g>
</g>
</svg>
