<?xml version="1.0" encoding="UTF-8" standalone="no"?>
<!DOCTYPE svg PUBLIC "-//W3C//DTD SVG 1.1//EN"
 "http://www.w3.org/Graphics/SVG/1.1/DTD/svg11.dtd">
<!-- Generated by graphviz version 2.47.3 (20210619.1520)
 -->
<!-- Title: dependencies Pages: 1 -->
<svg width="3551pt" height="247pt"
 viewBox="0.00 0.00 3551.00 246.80" xmlns="http://www.w3.org/2000/svg" xmlns:xlink="http://www.w3.org/1999/xlink">
<g id="graph0" class="graph" transform="scale(1 1) rotate(0) translate(4 242.8)">
<title>dependencies</title>
<polygon fill="white" stroke="transparent" points="-4,4 -4,-242.8 3547,-242.8 3547,4 -4,4"/>
<text text-anchor="middle" x="1771.5" y="-8.2" font-family="sans-serif" font-size="14.00">dependencies</text>
<g id="clust1" class="cluster">
<title>cluster_CoreModule</title>
<polygon fill="none" stroke="black" stroke-dasharray="1,5" points="8,-32.8 8,-230.8 3535,-230.8 3535,-32.8 8,-32.8"/>
</g>
<g id="clust19" class="cluster">
<title>cluster_CoreModule_providers</title>
<polygon fill="none" stroke="black" points="2921,-40.8 2921,-92.8 3527,-92.8 3527,-40.8 2921,-40.8"/>
</g>
<g id="clust2" class="cluster">
<title>cluster_CoreModule_declarations</title>
<polygon fill="none" stroke="black" points="922,-40.8 922,-92.8 2913,-92.8 2913,-40.8 922,-40.8"/>
</g>
<g id="clust17" class="cluster">
<title>cluster_CoreModule_exports</title>
<polygon fill="none" stroke="black" points="1673,-170.8 1673,-222.8 1805,-222.8 1805,-170.8 1673,-170.8"/>
</g>
<g id="clust16" class="cluster">
<title>cluster_CoreModule_imports</title>
<polygon fill="none" stroke="black" points="16,-40.8 16,-92.8 914,-92.8 914,-40.8 16,-40.8"/>
</g>
<!-- LoginComponent -->
<g id="node1" class="node">
<title>LoginComponent</title>
<polygon fill="#ffffb3" stroke="black" points="2905.28,-84.8 2790.72,-84.8 2790.72,-48.8 2905.28,-48.8 2905.28,-84.8"/>
<text text-anchor="middle" x="2848" y="-62.6" font-family="Times,serif" font-size="14.00">LoginComponent</text>
</g>
<!-- CoreModule -->
<g id="node14" class="node">
<title>CoreModule</title>
<polygon fill="#8dd3c7" stroke="black" points="1782.26,-149.8 1779.26,-153.8 1758.26,-153.8 1755.26,-149.8 1695.74,-149.8 1695.74,-113.8 1782.26,-113.8 1782.26,-149.8"/>
<text text-anchor="middle" x="1739" y="-127.6" font-family="Times,serif" font-size="14.00">CoreModule</text>
</g>
<!-- LoginComponent&#45;&gt;CoreModule -->
<g id="edge1" class="edge">
<title>LoginComponent&#45;&gt;CoreModule</title>
<path fill="none" stroke="black" d="M2848,-84.83C2848,-105.57 2848,-136.8 2848,-136.8 2848,-136.8 1792.47,-136.8 1792.47,-136.8"/>
<polygon fill="black" stroke="black" points="1792.47,-133.3 1782.47,-136.8 1792.47,-140.3 1792.47,-133.3"/>
</g>
<!-- LogoutComponent -->
<g id="node2" class="node">
<title>LogoutComponent</title>
<polygon fill="#ffffb3" stroke="black" points="2772.78,-84.8 2651.22,-84.8 2651.22,-48.8 2772.78,-48.8 2772.78,-84.8"/>
<text text-anchor="middle" x="2712" y="-62.6" font-family="Times,serif" font-size="14.00">LogoutComponent</text>
</g>
<!-- LogoutComponent&#45;&gt;CoreModule -->
<g id="edge2" class="edge">
<title>LogoutComponent&#45;&gt;CoreModule</title>
<path fill="none" stroke="black" d="M2712,-85.11C2712,-104.95 2712,-133.8 2712,-133.8 2712,-133.8 1792.38,-133.8 1792.38,-133.8"/>
<polygon fill="black" stroke="black" points="1792.38,-130.3 1782.38,-133.8 1792.38,-137.3 1792.38,-130.3"/>
</g>
<!-- PublicHomeComponent -->
<g id="node3" class="node">
<title>PublicHomeComponent</title>
<polygon fill="#ffffb3" stroke="black" points="2632.82,-84.8 2481.18,-84.8 2481.18,-48.8 2632.82,-48.8 2632.82,-84.8"/>
<text text-anchor="middle" x="2557" y="-62.6" font-family="Times,serif" font-size="14.00">PublicHomeComponent</text>
</g>
<!-- PublicHomeComponent&#45;&gt;CoreModule -->
<g id="edge3" class="edge">
<title>PublicHomeComponent&#45;&gt;CoreModule</title>
<path fill="none" stroke="black" d="M2557,-84.97C2557,-103.89 2557,-130.8 2557,-130.8 2557,-130.8 1792.4,-130.8 1792.4,-130.8"/>
<polygon fill="black" stroke="black" points="1792.4,-127.3 1782.4,-130.8 1792.4,-134.3 1792.4,-127.3"/>
</g>
<!-- PublicNavbarComponent -->
<g id="node4" class="node">
<title>PublicNavbarComponent</title>
<polygon fill="#ffffb3" stroke="black" points="2463.31,-84.8 2304.69,-84.8 2304.69,-48.8 2463.31,-48.8 2463.31,-84.8"/>
<text text-anchor="middle" x="2384" y="-62.6" font-family="Times,serif" font-size="14.00">PublicNavbarComponent</text>
</g>
<!-- PublicNavbarComponent&#45;&gt;CoreModule -->
<g id="edge4" class="edge">
<title>PublicNavbarComponent&#45;&gt;CoreModule</title>
<path fill="none" stroke="black" d="M2384,-85.1C2384,-103.07 2384,-127.8 2384,-127.8 2384,-127.8 1792.32,-127.8 1792.32,-127.8"/>
<polygon fill="black" stroke="black" points="1792.32,-124.3 1782.32,-127.8 1792.32,-131.3 1792.32,-124.3"/>
</g>
<!-- PublicFooterComponent -->
<g id="node5" class="node">
<title>PublicFooterComponent</title>
<polygon fill="#ffffb3" stroke="black" points="2286.66,-84.8 2133.34,-84.8 2133.34,-48.8 2286.66,-48.8 2286.66,-84.8"/>
<text text-anchor="middle" x="2210" y="-62.6" font-family="Times,serif" font-size="14.00">PublicFooterComponent</text>
</g>
<!-- PublicFooterComponent&#45;&gt;CoreModule -->
<g id="edge5" class="edge">
<title>PublicFooterComponent&#45;&gt;CoreModule</title>
<path fill="none" stroke="black" d="M2210,-84.84C2210,-101.53 2210,-123.8 2210,-123.8 2210,-123.8 1792.47,-123.8 1792.47,-123.8"/>
<polygon fill="black" stroke="black" points="1792.47,-120.3 1782.47,-123.8 1792.47,-127.3 1792.47,-120.3"/>
</g>
<!-- P404Component -->
<g id="node6" class="node">
<title>P404Component</title>
<polygon fill="#ffffb3" stroke="black" points="2115.12,-84.8 2004.88,-84.8 2004.88,-48.8 2115.12,-48.8 2115.12,-84.8"/>
<text text-anchor="middle" x="2060" y="-62.6" font-family="Times,serif" font-size="14.00">P404Component</text>
</g>
<!-- P404Component&#45;&gt;CoreModule -->
<g id="edge6" class="edge">
<title>P404Component&#45;&gt;CoreModule</title>
<path fill="none" stroke="black" d="M2060,-85.08C2060,-100.75 2060,-120.8 2060,-120.8 2060,-120.8 1792.29,-120.8 1792.29,-120.8"/>
<polygon fill="black" stroke="black" points="1792.29,-117.3 1782.29,-120.8 1792.29,-124.3 1792.29,-117.3"/>
</g>
<!-- P403Component -->
<g id="node7" class="node">
<title>P403Component</title>
<polygon fill="#ffffb3" stroke="black" points="1987.12,-84.8 1876.88,-84.8 1876.88,-48.8 1987.12,-48.8 1987.12,-84.8"/>
<text text-anchor="middle" x="1932" y="-62.6" font-family="Times,serif" font-size="14.00">P403Component</text>
</g>
<!-- P403Component&#45;&gt;CoreModule -->
<g id="edge7" class="edge">
<title>P403Component&#45;&gt;CoreModule</title>
<path fill="none" stroke="black" d="M1932,-84.92C1932,-99.58 1932,-117.8 1932,-117.8 1932,-117.8 1792.31,-117.8 1792.31,-117.8"/>
<polygon fill="black" stroke="black" points="1792.31,-114.3 1782.31,-117.8 1792.31,-121.3 1792.31,-114.3"/>
</g>
<!-- P401Component -->
<g id="node8" class="node">
<title>P401Component</title>
<polygon fill="#ffffb3" stroke="black" points="1859.12,-84.8 1748.88,-84.8 1748.88,-48.8 1859.12,-48.8 1859.12,-84.8"/>
<text text-anchor="middle" x="1804" y="-62.6" font-family="Times,serif" font-size="14.00">P401Component</text>
</g>
<!-- P401Component&#45;&gt;CoreModule -->
<g id="edge8" class="edge">
<title>P401Component&#45;&gt;CoreModule</title>
<path fill="none" stroke="black" d="M1765.66,-84.91C1765.66,-84.91 1765.66,-103.79 1765.66,-103.79"/>
<polygon fill="black" stroke="black" points="1762.16,-103.79 1765.66,-113.79 1769.16,-103.79 1762.16,-103.79"/>
</g>
<!-- E500Component -->
<g id="node9" class="node">
<title>E500Component</title>
<polygon fill="#ffffb3" stroke="black" points="1730.39,-84.8 1619.61,-84.8 1619.61,-48.8 1730.39,-48.8 1730.39,-84.8"/>
<text text-anchor="middle" x="1675" y="-62.6" font-family="Times,serif" font-size="14.00">E500Component</text>
</g>
<!-- E500Component&#45;&gt;CoreModule -->
<g id="edge9" class="edge">
<title>E500Component&#45;&gt;CoreModule</title>
<path fill="none" stroke="black" d="M1713.03,-84.91C1713.03,-84.91 1713.03,-103.79 1713.03,-103.79"/>
<polygon fill="black" stroke="black" points="1709.53,-103.79 1713.03,-113.79 1716.53,-103.79 1709.53,-103.79"/>
</g>
<!-- PrivateHomeComponent -->
<g id="node10" class="node">
<title>PrivateHomeComponent</title>
<polygon fill="#ffffb3" stroke="black" points="1601.7,-84.8 1446.3,-84.8 1446.3,-48.8 1601.7,-48.8 1601.7,-84.8"/>
<text text-anchor="middle" x="1524" y="-62.6" font-family="Times,serif" font-size="14.00">PrivateHomeComponent</text>
</g>
<!-- PrivateHomeComponent&#45;&gt;CoreModule -->
<g id="edge10" class="edge">
<title>PrivateHomeComponent&#45;&gt;CoreModule</title>
<path fill="none" stroke="black" d="M1524,-84.92C1524,-99.58 1524,-117.8 1524,-117.8 1524,-117.8 1685.49,-117.8 1685.49,-117.8"/>
<polygon fill="black" stroke="black" points="1685.49,-121.3 1695.49,-117.8 1685.49,-114.3 1685.49,-121.3"/>
</g>
<!-- PrivateNavbarComponent -->
<g id="node11" class="node">
<title>PrivateNavbarComponent</title>
<polygon fill="#ffffb3" stroke="black" points="1428.18,-84.8 1265.82,-84.8 1265.82,-48.8 1428.18,-48.8 1428.18,-84.8"/>
<text text-anchor="middle" x="1347" y="-62.6" font-family="Times,serif" font-size="14.00">PrivateNavbarComponent</text>
</g>
<!-- PrivateNavbarComponent&#45;&gt;CoreModule -->
<g id="edge11" class="edge">
<title>PrivateNavbarComponent&#45;&gt;CoreModule</title>
<path fill="none" stroke="black" d="M1347,-85.08C1347,-100.75 1347,-120.8 1347,-120.8 1347,-120.8 1685.55,-120.8 1685.55,-120.8"/>
<polygon fill="black" stroke="black" points="1685.55,-124.3 1695.55,-120.8 1685.55,-117.3 1685.55,-124.3"/>
</g>
<!-- PrivateFooterComponent -->
<g id="node12" class="node">
<title>PrivateFooterComponent</title>
<polygon fill="#ffffb3" stroke="black" points="1247.54,-84.8 1090.46,-84.8 1090.46,-48.8 1247.54,-48.8 1247.54,-84.8"/>
<text text-anchor="middle" x="1169" y="-62.6" font-family="Times,serif" font-size="14.00">PrivateFooterComponent</text>
</g>
<!-- PrivateFooterComponent&#45;&gt;CoreModule -->
<g id="edge12" class="edge">
<title>PrivateFooterComponent&#45;&gt;CoreModule</title>
<path fill="none" stroke="black" d="M1169,-84.84C1169,-101.53 1169,-123.8 1169,-123.8 1169,-123.8 1685.69,-123.8 1685.69,-123.8"/>
<polygon fill="black" stroke="black" points="1685.69,-127.3 1695.69,-123.8 1685.69,-120.3 1685.69,-127.3"/>
</g>
<!-- DashboardComponent -->
<g id="node13" class="node">
<title>DashboardComponent</title>
<polygon fill="#ffffb3" stroke="black" points="1071.97,-84.8 930.03,-84.8 930.03,-48.8 1071.97,-48.8 1071.97,-84.8"/>
<text text-anchor="middle" x="1001" y="-62.6" font-family="Times,serif" font-size="14.00">DashboardComponent</text>
</g>
<!-- DashboardComponent&#45;&gt;CoreModule -->
<g id="edge13" class="edge">
<title>DashboardComponent&#45;&gt;CoreModule</title>
<path fill="none" stroke="black" d="M1001,-85.1C1001,-103.07 1001,-127.8 1001,-127.8 1001,-127.8 1685.59,-127.8 1685.59,-127.8"/>
<polygon fill="black" stroke="black" points="1685.59,-131.3 1695.59,-127.8 1685.59,-124.3 1685.59,-131.3"/>
</g>
<!-- CommonModule  -->
<g id="node21" class="node">
<title>CommonModule </title>
<polygon fill="#fb8072" stroke="black" points="1796.67,-214.8 1681.33,-214.8 1681.33,-178.8 1796.67,-178.8 1796.67,-214.8"/>
<text text-anchor="middle" x="1739" y="-192.6" font-family="Times,serif" font-size="14.00">CommonModule </text>
</g>
<!-- CoreModule&#45;&gt;CommonModule  -->
<g id="edge20" class="edge">
<title>CoreModule&#45;&gt;CommonModule </title>
<path fill="none" stroke="black" stroke-dasharray="5,2" d="M1739,-149.91C1739,-149.91 1739,-168.79 1739,-168.79"/>
<polygon fill="black" stroke="black" points="1735.5,-168.79 1739,-178.79 1742.5,-168.79 1735.5,-168.79"/>
</g>
<!-- BrowserModule -->
<g id="node15" class="node">
<title>BrowserModule</title>
<polygon fill="#8dd3c7" stroke="black" points="906.47,-84.8 903.47,-88.8 882.47,-88.8 879.47,-84.8 799.53,-84.8 799.53,-48.8 906.47,-48.8 906.47,-84.8"/>
<text text-anchor="middle" x="853" y="-62.6" font-family="Times,serif" font-size="14.00">BrowserModule</text>
</g>
<!-- BrowserModule&#45;&gt;CoreModule -->
<g id="edge14" class="edge">
<title>BrowserModule&#45;&gt;CoreModule</title>
<path fill="none" stroke="black" d="M853,-84.97C853,-103.89 853,-130.8 853,-130.8 853,-130.8 1685.67,-130.8 1685.67,-130.8"/>
<polygon fill="black" stroke="black" points="1685.67,-134.3 1695.67,-130.8 1685.67,-127.3 1685.67,-134.3"/>
</g>
<!-- CommonModule -->
<g id="node16" class="node">
<title>CommonModule</title>
<polygon fill="#8dd3c7" stroke="black" points="781.67,-84.8 778.67,-88.8 757.67,-88.8 754.67,-84.8 670.33,-84.8 670.33,-48.8 781.67,-48.8 781.67,-84.8"/>
<text text-anchor="middle" x="726" y="-62.6" font-family="Times,serif" font-size="14.00">CommonModule</text>
</g>
<!-- CommonModule&#45;&gt;CoreModule -->
<g id="edge15" class="edge">
<title>CommonModule&#45;&gt;CoreModule</title>
<path fill="none" stroke="black" d="M726,-85.11C726,-104.95 726,-133.8 726,-133.8 726,-133.8 1685.47,-133.8 1685.47,-133.8"/>
<polygon fill="black" stroke="black" points="1685.47,-137.3 1695.47,-133.8 1685.47,-130.3 1685.47,-137.3"/>
</g>
<!-- BrowserAnimationsModule -->
<g id="node17" class="node">
<title>BrowserAnimationsModule</title>
<polygon fill="#8dd3c7" stroke="black" points="652.3,-84.8 649.3,-88.8 628.3,-88.8 625.3,-84.8 479.7,-84.8 479.7,-48.8 652.3,-48.8 652.3,-84.8"/>
<text text-anchor="middle" x="566" y="-62.6" font-family="Times,serif" font-size="14.00">BrowserAnimationsModule</text>
</g>
<!-- BrowserAnimationsModule&#45;&gt;CoreModule -->
<g id="edge16" class="edge">
<title>BrowserAnimationsModule&#45;&gt;CoreModule</title>
<path fill="none" stroke="black" d="M566,-84.83C566,-105.57 566,-136.8 566,-136.8 566,-136.8 1685.51,-136.8 1685.51,-136.8"/>
<polygon fill="black" stroke="black" points="1685.51,-140.3 1695.51,-136.8 1685.51,-133.3 1685.51,-140.3"/>
</g>
<!-- AppRoutingModule -->
<g id="node18" class="node">
<title>AppRoutingModule</title>
<polygon fill="#8dd3c7" stroke="black" points="461.27,-84.8 458.27,-88.8 437.27,-88.8 434.27,-84.8 332.73,-84.8 332.73,-48.8 461.27,-48.8 461.27,-84.8"/>
<text text-anchor="middle" x="397" y="-62.6" font-family="Times,serif" font-size="14.00">AppRoutingModule</text>
</g>
<!-- AppRoutingModule&#45;&gt;CoreModule -->
<g id="edge17" class="edge">
<title>AppRoutingModule&#45;&gt;CoreModule</title>
<path fill="none" stroke="black" d="M397,-85.09C397,-107.01 397,-140.8 397,-140.8 397,-140.8 1685.49,-140.8 1685.49,-140.8"/>
<polygon fill="black" stroke="black" points="1685.49,-144.3 1695.49,-140.8 1685.49,-137.3 1685.49,-144.3"/>
</g>
<!-- HttpClientModule -->
<g id="node19" class="node">
<title>HttpClientModule</title>
<polygon fill="#8dd3c7" stroke="black" points="314.16,-84.8 311.16,-88.8 290.16,-88.8 287.16,-84.8 195.84,-84.8 195.84,-48.8 314.16,-48.8 314.16,-84.8"/>
<text text-anchor="middle" x="255" y="-62.6" font-family="Times,serif" font-size="14.00">HttpClientModule</text>
</g>
<!-- HttpClientModule&#45;&gt;CoreModule -->
<g id="edge18" class="edge">
<title>HttpClientModule&#45;&gt;CoreModule</title>
<path fill="none" stroke="black" d="M255,-85.05C255,-107.82 255,-143.8 255,-143.8 255,-143.8 1685.39,-143.8 1685.39,-143.8"/>
<polygon fill="black" stroke="black" points="1685.39,-147.3 1695.39,-143.8 1685.39,-140.3 1685.39,-147.3"/>
</g>
<!-- OAuthModule.forRoot() -->
<g id="node20" class="node">
<title>OAuthModule.forRoot()</title>
<polygon fill="#8dd3c7" stroke="black" points="178.02,-84.8 175.02,-88.8 154.02,-88.8 151.02,-84.8 23.98,-84.8 23.98,-48.8 178.02,-48.8 178.02,-84.8"/>
<text text-anchor="middle" x="101" y="-62.6" font-family="Times,serif" font-size="14.00">OAuthModule.forRoot()</text>
</g>
<!-- OAuthModule.forRoot()&#45;&gt;CoreModule -->
<g id="edge19" class="edge">
<title>OAuthModule.forRoot()&#45;&gt;CoreModule</title>
<path fill="none" stroke="black" d="M101,-84.95C101,-108.56 101,-146.8 101,-146.8 101,-146.8 1685.61,-146.8 1685.61,-146.8"/>
<polygon fill="black" stroke="black" points="1685.61,-150.3 1695.61,-146.8 1685.61,-143.3 1685.61,-150.3"/>
</g>
<!-- AuthGuard -->
<g id="node22" class="node">
<title>AuthGuard</title>
<ellipse fill="#fdb462" stroke="black" cx="3465" cy="-66.8" rx="54.46" ry="18"/>
<text text-anchor="middle" x="3465" y="-62.6" font-family="Times,serif" font-size="14.00">AuthGuard</text>
</g>
<!-- AuthGuard&#45;&gt;CoreModule -->
<g id="edge21" class="edge">
<title>AuthGuard&#45;&gt;CoreModule</title>
<path fill="none" stroke="black" d="M3465,-84.95C3465,-108.56 3465,-146.8 3465,-146.8 3465,-146.8 1792.53,-146.8 1792.53,-146.8"/>
<polygon fill="black" stroke="black" points="1792.53,-143.3 1782.53,-146.8 1792.53,-150.3 1792.53,-143.3"/>
</g>
<!-- HTTP_INTERCEPTOR_PROVIDERS -->
<g id="node23" class="node">
<title>HTTP_INTERCEPTOR_PROVIDERS</title>
<ellipse fill="#fdb462" stroke="black" cx="3229" cy="-66.8" rx="163.84" ry="18"/>
<text text-anchor="middle" x="3229" y="-62.6" font-family="Times,serif" font-size="14.00">HTTP_INTERCEPTOR_PROVIDERS</text>
</g>
<!-- HTTP_INTERCEPTOR_PROVIDERS&#45;&gt;CoreModule -->
<g id="edge22" class="edge">
<title>HTTP_INTERCEPTOR_PROVIDERS&#45;&gt;CoreModule</title>
<path fill="none" stroke="black" d="M3229,-85.05C3229,-107.82 3229,-143.8 3229,-143.8 3229,-143.8 1792.39,-143.8 1792.39,-143.8"/>
<polygon fill="black" stroke="black" points="1792.39,-140.3 1782.39,-143.8 1792.39,-147.3 1792.39,-140.3"/>
</g>
<!-- AuthService -->
<g id="node24" class="node">
<title>AuthService</title>
<ellipse fill="#fdb462" stroke="black" cx="2988" cy="-66.8" rx="59.11" ry="18"/>
<text text-anchor="middle" x="2988" y="-62.6" font-family="Times,serif" font-size="14.00">AuthService</text>
</g>
<!-- AuthService&#45;&gt;CoreModule -->
<g id="edge23" class="edge">
<title>AuthService&#45;&gt;CoreModule</title>
<path fill="none" stroke="black" d="M2988,-85.09C2988,-107.01 2988,-140.8 2988,-140.8 2988,-140.8 1792.36,-140.8 1792.36,-140.8"/>
<polygon fill="black" stroke="black" points="1792.36,-137.3 1782.36,-140.8 1792.36,-144.3 1792.36,-137.3"/>
</g>
</g>
</svg>
