<?xml version="1.0" encoding="UTF-8" standalone="no"?>
<!DOCTYPE svg PUBLIC "-//W3C//DTD SVG 1.1//EN"
 "http://www.w3.org/Graphics/SVG/1.1/DTD/svg11.dtd">
<!-- Generated by graphviz version 2.47.3 (20210619.1520)
 -->
<!-- Title: dependencies Pages: 1 -->
<svg width="284pt" height="174pt"
 viewBox="0.00 0.00 284.00 173.80" xmlns="http://www.w3.org/2000/svg" xmlns:xlink="http://www.w3.org/1999/xlink">
<g id="graph0" class="graph" transform="scale(1 1) rotate(0) translate(4 169.8)">
<title>dependencies</title>
<polygon fill="white" stroke="transparent" points="-4,4 -4,-169.8 280,-169.8 280,4 -4,4"/>
<text text-anchor="middle" x="138" y="-8.2" font-family="sans-serif" font-size="14.00">dependencies</text>
<g id="clust1" class="cluster">
<title>cluster_SharedModule</title>
<polygon fill="none" stroke="black" stroke-dasharray="1,5" points="8,-32.8 8,-157.8 268,-157.8 268,-32.8 8,-32.8"/>
</g>
<g id="clust3" class="cluster">
<title>cluster_SharedModule_imports</title>
<polygon fill="none" stroke="black" points="16,-40.8 16,-92.8 260,-92.8 260,-40.8 16,-40.8"/>
</g>
<!-- CommonModule -->
<g id="node1" class="node">
<title>CommonModule</title>
<polygon fill="#8dd3c7" stroke="black" points="251.67,-84.8 248.67,-88.8 227.67,-88.8 224.67,-84.8 140.33,-84.8 140.33,-48.8 251.67,-48.8 251.67,-84.8"/>
<text text-anchor="middle" x="196" y="-62.6" font-family="Times,serif" font-size="14.00">CommonModule</text>
</g>
<!-- SharedModule -->
<g id="node3" class="node">
<title>SharedModule</title>
<polygon fill="#8dd3c7" stroke="black" points="183.42,-149.8 180.42,-153.8 159.42,-153.8 156.42,-149.8 84.58,-149.8 84.58,-113.8 183.42,-113.8 183.42,-149.8"/>
<text text-anchor="middle" x="134" y="-127.6" font-family="Times,serif" font-size="14.00">SharedModule</text>
</g>
<!-- CommonModule&#45;&gt;SharedModule -->
<g id="edge1" class="edge">
<title>CommonModule&#45;&gt;SharedModule</title>
<path fill="none" stroke="black" d="M161.69,-84.91C161.69,-84.91 161.69,-103.79 161.69,-103.79"/>
<polygon fill="black" stroke="black" points="158.19,-103.79 161.69,-113.79 165.19,-103.79 158.19,-103.79"/>
</g>
<!-- RouterModule -->
<g id="node2" class="node">
<title>RouterModule</title>
<polygon fill="#8dd3c7" stroke="black" points="121.65,-84.8 118.65,-88.8 97.65,-88.8 94.65,-84.8 24.35,-84.8 24.35,-48.8 121.65,-48.8 121.65,-84.8"/>
<text text-anchor="middle" x="73" y="-62.6" font-family="Times,serif" font-size="14.00">RouterModule</text>
</g>
<!-- RouterModule&#45;&gt;SharedModule -->
<g id="edge2" class="edge">
<title>RouterModule&#45;&gt;SharedModule</title>
<path fill="none" stroke="black" d="M103.31,-84.91C103.31,-84.91 103.31,-103.79 103.31,-103.79"/>
<polygon fill="black" stroke="black" points="99.81,-103.79 103.31,-113.79 106.81,-103.79 99.81,-103.79"/>
</g>
</g>
</svg>
