<?xml version="1.0" encoding="UTF-8" standalone="no"?>
<!DOCTYPE svg PUBLIC "-//W3C//DTD SVG 1.1//EN"
 "http://www.w3.org/Graphics/SVG/1.1/DTD/svg11.dtd">
<!-- Generated by graphviz version 2.47.3 (20210619.1520)
 -->
<!-- Title: dependencies Pages: 1 -->
<svg width="636pt" height="174pt"
 viewBox="0.00 0.00 636.00 173.80" xmlns="http://www.w3.org/2000/svg" xmlns:xlink="http://www.w3.org/1999/xlink">
<g id="graph0" class="graph" transform="scale(1 1) rotate(0) translate(4 169.8)">
<title>dependencies</title>
<polygon fill="white" stroke="transparent" points="-4,4 -4,-169.8 632,-169.8 632,4 -4,4"/>
<text text-anchor="middle" x="314" y="-8.2" font-family="sans-serif" font-size="14.00">dependencies</text>
<g id="clust1" class="cluster">
<title>cluster_FeatureModuleDemoModule</title>
<polygon fill="none" stroke="black" stroke-dasharray="1,5" points="8,-32.8 8,-157.8 620,-157.8 620,-32.8 8,-32.8"/>
</g>
<g id="clust2" class="cluster">
<title>cluster_FeatureModuleDemoModule_declarations</title>
<polygon fill="none" stroke="black" points="394,-40.8 394,-92.8 612,-92.8 612,-40.8 394,-40.8"/>
</g>
<g id="clust4" class="cluster">
<title>cluster_FeatureModuleDemoModule_imports</title>
<polygon fill="none" stroke="black" points="16,-40.8 16,-92.8 386,-92.8 386,-40.8 16,-40.8"/>
</g>
<!-- FeatureModuleDemoComponent -->
<g id="node1" class="node">
<title>FeatureModuleDemoComponent</title>
<polygon fill="#ffffb3" stroke="black" points="603.57,-84.8 402.43,-84.8 402.43,-48.8 603.57,-48.8 603.57,-84.8"/>
<text text-anchor="middle" x="503" y="-62.6" font-family="Times,serif" font-size="14.00">FeatureModuleDemoComponent</text>
</g>
<!-- FeatureModuleDemoModule -->
<g id="node2" class="node">
<title>FeatureModuleDemoModule</title>
<polygon fill="#8dd3c7" stroke="black" points="411.79,-149.8 408.79,-153.8 387.79,-153.8 384.79,-149.8 232.21,-149.8 232.21,-113.8 411.79,-113.8 411.79,-149.8"/>
<text text-anchor="middle" x="322" y="-127.6" font-family="Times,serif" font-size="14.00">FeatureModuleDemoModule</text>
</g>
<!-- FeatureModuleDemoComponent&#45;&gt;FeatureModuleDemoModule -->
<g id="edge1" class="edge">
<title>FeatureModuleDemoComponent&#45;&gt;FeatureModuleDemoModule</title>
<path fill="none" stroke="black" d="M407.05,-84.91C407.05,-84.91 407.05,-103.79 407.05,-103.79"/>
<polygon fill="black" stroke="black" points="403.55,-103.79 407.05,-113.79 410.55,-103.79 403.55,-103.79"/>
</g>
<!-- CommonModule -->
<g id="node3" class="node">
<title>CommonModule</title>
<polygon fill="#8dd3c7" stroke="black" points="377.67,-84.8 374.67,-88.8 353.67,-88.8 350.67,-84.8 266.33,-84.8 266.33,-48.8 377.67,-48.8 377.67,-84.8"/>
<text text-anchor="middle" x="322" y="-62.6" font-family="Times,serif" font-size="14.00">CommonModule</text>
</g>
<!-- CommonModule&#45;&gt;FeatureModuleDemoModule -->
<g id="edge2" class="edge">
<title>CommonModule&#45;&gt;FeatureModuleDemoModule</title>
<path fill="none" stroke="black" d="M322,-84.91C322,-84.91 322,-103.79 322,-103.79"/>
<polygon fill="black" stroke="black" points="318.5,-103.79 322,-113.79 325.5,-103.79 318.5,-103.79"/>
</g>
<!-- FeatureModuleDemoRoutingModule -->
<g id="node4" class="node">
<title>FeatureModuleDemoRoutingModule</title>
<polygon fill="#8dd3c7" stroke="black" points="248.41,-84.8 245.41,-88.8 224.41,-88.8 221.41,-84.8 23.59,-84.8 23.59,-48.8 248.41,-48.8 248.41,-84.8"/>
<text text-anchor="middle" x="136" y="-62.6" font-family="Times,serif" font-size="14.00">FeatureModuleDemoRoutingModule</text>
</g>
<!-- FeatureModuleDemoRoutingModule&#45;&gt;FeatureModuleDemoModule -->
<g id="edge3" class="edge">
<title>FeatureModuleDemoRoutingModule&#45;&gt;FeatureModuleDemoModule</title>
<path fill="none" stroke="black" d="M240.28,-84.91C240.28,-84.91 240.28,-103.79 240.28,-103.79"/>
<polygon fill="black" stroke="black" points="236.78,-103.79 240.28,-113.79 243.78,-103.79 236.78,-103.79"/>
</g>
</g>
</svg>
