<?xml version="1.0" encoding="UTF-8" standalone="no"?>
<!DOCTYPE svg PUBLIC "-//W3C//DTD SVG 1.1//EN"
 "http://www.w3.org/Graphics/SVG/1.1/DTD/svg11.dtd">
<!-- Generated by graphviz version 2.47.3 (20210619.1520)
 -->
<!-- Title: dependencies Pages: 1 -->
<svg width="593pt" height="247pt"
 viewBox="0.00 0.00 593.00 246.80" xmlns="http://www.w3.org/2000/svg" xmlns:xlink="http://www.w3.org/1999/xlink">
<g id="graph0" class="graph" transform="scale(1 1) rotate(0) translate(4 242.8)">
<title>dependencies</title>
<polygon fill="white" stroke="transparent" points="-4,4 -4,-242.8 589,-242.8 589,4 -4,4"/>
<text text-anchor="middle" x="292.5" y="-8.2" font-family="sans-serif" font-size="14.00">dependencies</text>
<g id="clust1" class="cluster">
<title>cluster_AppModule</title>
<polygon fill="none" stroke="black" stroke-dasharray="1,5" points="8,-32.8 8,-230.8 577,-230.8 577,-32.8 8,-32.8"/>
</g>
<g id="clust4" class="cluster">
<title>cluster_AppModule_imports</title>
<polygon fill="none" stroke="black" points="146,-40.8 146,-92.8 569,-92.8 569,-40.8 146,-40.8"/>
</g>
<g id="clust2" class="cluster">
<title>cluster_AppModule_declarations</title>
<polygon fill="none" stroke="black" points="16,-40.8 16,-92.8 138,-92.8 138,-40.8 16,-40.8"/>
</g>
<g id="clust6" class="cluster">
<title>cluster_AppModule_bootstrap</title>
<polygon fill="none" stroke="black" points="222,-170.8 222,-222.8 346,-222.8 346,-170.8 222,-170.8"/>
</g>
<!-- AppComponent -->
<g id="node1" class="node">
<title>AppComponent</title>
<polygon fill="#ffffb3" stroke="black" points="129.94,-84.8 24.06,-84.8 24.06,-48.8 129.94,-48.8 129.94,-84.8"/>
<text text-anchor="middle" x="77" y="-62.6" font-family="Times,serif" font-size="14.00">AppComponent</text>
</g>
<!-- AppModule -->
<g id="node2" class="node">
<title>AppModule</title>
<polygon fill="#8dd3c7" stroke="black" points="325.66,-149.8 322.66,-153.8 301.66,-153.8 298.66,-149.8 242.34,-149.8 242.34,-113.8 325.66,-113.8 325.66,-149.8"/>
<text text-anchor="middle" x="284" y="-127.6" font-family="Times,serif" font-size="14.00">AppModule</text>
</g>
<!-- AppComponent&#45;&gt;AppModule -->
<g id="edge1" class="edge">
<title>AppComponent&#45;&gt;AppModule</title>
<path fill="none" stroke="black" d="M77,-84.91C77,-104.14 77,-131.8 77,-131.8 77,-131.8 232.11,-131.8 232.11,-131.8"/>
<polygon fill="black" stroke="black" points="232.11,-135.3 242.11,-131.8 232.11,-128.3 232.11,-135.3"/>
</g>
<!-- AppComponent  -->
<g id="node6" class="node">
<title>AppComponent </title>
<polygon fill="#80b1d3" stroke="black" points="338.44,-214.8 229.56,-214.8 229.56,-178.8 338.44,-178.8 338.44,-214.8"/>
<text text-anchor="middle" x="284" y="-192.6" font-family="Times,serif" font-size="14.00">AppComponent </text>
</g>
<!-- AppModule&#45;&gt;AppComponent  -->
<g id="edge5" class="edge">
<title>AppModule&#45;&gt;AppComponent </title>
<path fill="none" stroke="black" stroke-dasharray="1,5" d="M284,-149.91C284,-149.91 284,-168.79 284,-168.79"/>
<polygon fill="black" stroke="black" points="280.5,-168.79 284,-178.79 287.5,-168.79 280.5,-168.79"/>
</g>
<!-- CoreModule.forRoot() -->
<g id="node3" class="node">
<title>CoreModule.forRoot()</title>
<polygon fill="#8dd3c7" stroke="black" points="560.63,-84.8 557.63,-88.8 536.63,-88.8 533.63,-84.8 417.37,-84.8 417.37,-48.8 560.63,-48.8 560.63,-84.8"/>
<text text-anchor="middle" x="489" y="-62.6" font-family="Times,serif" font-size="14.00">CoreModule.forRoot()</text>
</g>
<!-- CoreModule.forRoot()&#45;&gt;AppModule -->
<g id="edge2" class="edge">
<title>CoreModule.forRoot()&#45;&gt;AppModule</title>
<path fill="none" stroke="black" d="M489,-84.91C489,-104.14 489,-131.8 489,-131.8 489,-131.8 335.98,-131.8 335.98,-131.8"/>
<polygon fill="black" stroke="black" points="335.98,-128.3 325.98,-131.8 335.98,-135.3 335.98,-128.3"/>
</g>
<!-- SharedModule -->
<g id="node4" class="node">
<title>SharedModule</title>
<polygon fill="#8dd3c7" stroke="black" points="399.42,-84.8 396.42,-88.8 375.42,-88.8 372.42,-84.8 300.58,-84.8 300.58,-48.8 399.42,-48.8 399.42,-84.8"/>
<text text-anchor="middle" x="350" y="-62.6" font-family="Times,serif" font-size="14.00">SharedModule</text>
</g>
<!-- SharedModule&#45;&gt;AppModule -->
<g id="edge3" class="edge">
<title>SharedModule&#45;&gt;AppModule</title>
<path fill="none" stroke="black" d="M313.31,-84.91C313.31,-84.91 313.31,-103.79 313.31,-103.79"/>
<polygon fill="black" stroke="black" points="309.81,-103.79 313.31,-113.79 316.81,-103.79 309.81,-103.79"/>
</g>
<!-- AppRoutingModule -->
<g id="node5" class="node">
<title>AppRoutingModule</title>
<polygon fill="#8dd3c7" stroke="black" points="282.27,-84.8 279.27,-88.8 258.27,-88.8 255.27,-84.8 153.73,-84.8 153.73,-48.8 282.27,-48.8 282.27,-84.8"/>
<text text-anchor="middle" x="218" y="-62.6" font-family="Times,serif" font-size="14.00">AppRoutingModule</text>
</g>
<!-- AppRoutingModule&#45;&gt;AppModule -->
<g id="edge4" class="edge">
<title>AppRoutingModule&#45;&gt;AppModule</title>
<path fill="none" stroke="black" d="M262.28,-84.91C262.28,-84.91 262.28,-103.79 262.28,-103.79"/>
<polygon fill="black" stroke="black" points="258.78,-103.79 262.28,-113.79 265.78,-103.79 258.78,-103.79"/>
</g>
</g>
</svg>
