<?xml version="1.0" encoding="UTF-8" standalone="no"?>
<!DOCTYPE svg PUBLIC "-//W3C//DTD SVG 1.1//EN"
 "http://www.w3.org/Graphics/SVG/1.1/DTD/svg11.dtd">
<!-- Generated by graphviz version 2.47.3 (20210619.1520)
 -->
<!-- Title: dependencies Pages: 1 -->
<svg width="264pt" height="247pt"
 viewBox="0.00 0.00 264.00 246.80" xmlns="http://www.w3.org/2000/svg" xmlns:xlink="http://www.w3.org/1999/xlink">
<g id="graph0" class="graph" transform="scale(1 1) rotate(0) translate(4 242.8)">
<title>dependencies</title>
<polygon fill="white" stroke="transparent" points="-4,4 -4,-242.8 260,-242.8 260,4 -4,4"/>
<text text-anchor="middle" x="128" y="-8.2" font-family="sans-serif" font-size="14.00">dependencies</text>
<g id="clust1" class="cluster">
<title>cluster_FeatureModuleDemoRoutingModule</title>
<polygon fill="none" stroke="black" stroke-dasharray="1,5" points="8,-32.8 8,-230.8 248,-230.8 248,-32.8 8,-32.8"/>
</g>
<g id="clust4" class="cluster">
<title>cluster_FeatureModuleDemoRoutingModule_exports</title>
<polygon fill="none" stroke="black" points="69,-170.8 69,-222.8 187,-222.8 187,-170.8 69,-170.8"/>
</g>
<g id="clust3" class="cluster">
<title>cluster_FeatureModuleDemoRoutingModule_imports</title>
<polygon fill="none" stroke="black" points="29,-40.8 29,-92.8 227,-92.8 227,-40.8 29,-40.8"/>
</g>
<!-- RouterModule.forChild(args) -->
<g id="node1" class="node">
<title>RouterModule.forChild(args)</title>
<polygon fill="#8dd3c7" stroke="black" points="218.73,-84.8 215.73,-88.8 194.73,-88.8 191.73,-84.8 37.27,-84.8 37.27,-48.8 218.73,-48.8 218.73,-84.8"/>
<text text-anchor="middle" x="128" y="-62.6" font-family="Times,serif" font-size="14.00">RouterModule.forChild(args)</text>
</g>
<!-- FeatureModuleDemoRoutingModule -->
<g id="node2" class="node">
<title>FeatureModuleDemoRoutingModule</title>
<polygon fill="#8dd3c7" stroke="black" points="240.41,-149.8 237.41,-153.8 216.41,-153.8 213.41,-149.8 15.59,-149.8 15.59,-113.8 240.41,-113.8 240.41,-149.8"/>
<text text-anchor="middle" x="128" y="-127.6" font-family="Times,serif" font-size="14.00">FeatureModuleDemoRoutingModule</text>
</g>
<!-- RouterModule.forChild(args)&#45;&gt;FeatureModuleDemoRoutingModule -->
<g id="edge1" class="edge">
<title>RouterModule.forChild(args)&#45;&gt;FeatureModuleDemoRoutingModule</title>
<path fill="none" stroke="black" d="M128,-84.91C128,-84.91 128,-103.79 128,-103.79"/>
<polygon fill="black" stroke="black" points="124.5,-103.79 128,-113.79 131.5,-103.79 124.5,-103.79"/>
</g>
<!-- RouterModule  -->
<g id="node3" class="node">
<title>RouterModule </title>
<polygon fill="#fb8072" stroke="black" points="178.65,-214.8 77.35,-214.8 77.35,-178.8 178.65,-178.8 178.65,-214.8"/>
<text text-anchor="middle" x="128" y="-192.6" font-family="Times,serif" font-size="14.00">RouterModule </text>
</g>
<!-- FeatureModuleDemoRoutingModule&#45;&gt;RouterModule  -->
<g id="edge2" class="edge">
<title>FeatureModuleDemoRoutingModule&#45;&gt;RouterModule </title>
<path fill="none" stroke="black" stroke-dasharray="5,2" d="M128,-149.91C128,-149.91 128,-168.79 128,-168.79"/>
<polygon fill="black" stroke="black" points="124.5,-168.79 128,-178.79 131.5,-168.79 124.5,-168.79"/>
</g>
</g>
</svg>
