<?xml version="1.0" encoding="UTF-8" standalone="no"?>
<!DOCTYPE svg PUBLIC "-//W3C//DTD SVG 1.1//EN"
 "http://www.w3.org/Graphics/SVG/1.1/DTD/svg11.dtd">
<!-- Generated by graphviz version 2.47.3 (20210619.1520)
 -->
<!-- Title: dependencies Pages: 1 -->
<svg width="4817pt" height="329pt"
 viewBox="0.00 0.00 4817.00 328.80" xmlns="http://www.w3.org/2000/svg" xmlns:xlink="http://www.w3.org/1999/xlink">
<g id="graph0" class="graph" transform="scale(1 1) rotate(0) translate(4 324.8)">
<title>dependencies</title>
<polygon fill="white" stroke="transparent" points="-4,4 -4,-324.8 4813,-324.8 4813,4 -4,4"/>
<text text-anchor="middle" x="2404.5" y="-8.2" font-family="sans-serif" font-size="14.00">dependencies</text>
<g id="clust1" class="cluster">
<title>cluster_AppModule</title>
<polygon fill="none" stroke="black" stroke-dasharray="1,5" points="8,-108.8 8,-312.8 576,-312.8 576,-108.8 8,-108.8"/>
</g>
<g id="clust2" class="cluster">
<title>cluster_AppModule_declarations</title>
<polygon fill="none" stroke="black" points="446,-116.8 446,-168.8 568,-168.8 568,-116.8 446,-116.8"/>
</g>
<g id="clust4" class="cluster">
<title>cluster_AppModule_imports</title>
<polygon fill="none" stroke="black" points="16,-116.8 16,-168.8 438,-168.8 438,-116.8 16,-116.8"/>
</g>
<g id="clust6" class="cluster">
<title>cluster_AppModule_bootstrap</title>
<polygon fill="none" stroke="black" points="227,-252.8 227,-304.8 351,-304.8 351,-252.8 227,-252.8"/>
</g>
<g id="clust8" class="cluster">
<title>cluster_CoreModule</title>
<polygon fill="none" stroke="black" stroke-dasharray="1,5" points="584,-32.8 584,-244.8 3963,-244.8 3963,-32.8 584,-32.8"/>
</g>
<g id="clust9" class="cluster">
<title>cluster_CoreModule_declarations</title>
<polygon fill="none" stroke="black" points="1964,-40.8 1964,-92.8 3955,-92.8 3955,-40.8 1964,-40.8"/>
</g>
<g id="clust23" class="cluster">
<title>cluster_CoreModule_imports</title>
<polygon fill="none" stroke="black" points="592,-40.8 592,-92.8 1342,-92.8 1342,-40.8 592,-40.8"/>
</g>
<g id="clust24" class="cluster">
<title>cluster_CoreModule_exports</title>
<polygon fill="none" stroke="black" points="2235,-184.8 2235,-236.8 2367,-236.8 2367,-184.8 2235,-184.8"/>
</g>
<g id="clust26" class="cluster">
<title>cluster_CoreModule_providers</title>
<polygon fill="none" stroke="black" points="1350,-40.8 1350,-92.8 1956,-92.8 1956,-40.8 1350,-40.8"/>
</g>
<g id="clust27" class="cluster">
<title>cluster_FeatureModuleDemoModule</title>
<polygon fill="none" stroke="black" stroke-dasharray="1,5" points="3971,-32.8 3971,-168.8 4453,-168.8 4453,-32.8 3971,-32.8"/>
</g>
<g id="clust28" class="cluster">
<title>cluster_FeatureModuleDemoModule_declarations</title>
<polygon fill="none" stroke="black" points="3979,-40.8 3979,-92.8 4197,-92.8 4197,-40.8 3979,-40.8"/>
</g>
<g id="clust30" class="cluster">
<title>cluster_FeatureModuleDemoModule_imports</title>
<polygon fill="none" stroke="black" points="4205,-40.8 4205,-92.8 4445,-92.8 4445,-40.8 4205,-40.8"/>
</g>
<g id="clust34" class="cluster">
<title>cluster_FeatureModuleDemoRoutingModule</title>
<polygon fill="none" stroke="black" stroke-dasharray="1,5" points="4461,-108.8 4461,-176.8 4801,-176.8 4801,-108.8 4461,-108.8"/>
</g>
<g id="clust36" class="cluster">
<title>cluster_FeatureModuleDemoRoutingModule_imports</title>
<polygon fill="none" stroke="black" points="4595,-116.8 4595,-168.8 4793,-168.8 4793,-116.8 4595,-116.8"/>
</g>
<g id="clust37" class="cluster">
<title>cluster_FeatureModuleDemoRoutingModule_exports</title>
<polygon fill="none" stroke="black" points="4469,-116.8 4469,-168.8 4587,-168.8 4587,-116.8 4469,-116.8"/>
</g>
<g id="clust40" class="cluster">
<title>cluster_SharedModule</title>
<polygon fill="none" stroke="black" stroke-dasharray="1,5" points="8,-32.8 8,-100.8 138,-100.8 138,-32.8 8,-32.8"/>
</g>
<g id="clust42" class="cluster">
<title>cluster_SharedModule_imports</title>
<polygon fill="none" stroke="black" points="16,-40.8 16,-92.8 130,-92.8 130,-40.8 16,-40.8"/>
</g>
<!-- AppComponent -->
<g id="node1" class="node">
<title>AppComponent</title>
<polygon fill="#ffffb3" stroke="black" points="559.94,-160.8 454.06,-160.8 454.06,-124.8 559.94,-124.8 559.94,-160.8"/>
<text text-anchor="middle" x="507" y="-138.6" font-family="Times,serif" font-size="14.00">AppComponent</text>
</g>
<!-- AppModule -->
<g id="node2" class="node">
<title>AppModule</title>
<polygon fill="#8dd3c7" stroke="black" points="330.66,-228.8 327.66,-232.8 306.66,-232.8 303.66,-228.8 247.34,-228.8 247.34,-192.8 330.66,-192.8 330.66,-228.8"/>
<text text-anchor="middle" x="289" y="-206.6" font-family="Times,serif" font-size="14.00">AppModule</text>
</g>
<!-- AppComponent&#45;&gt;AppModule -->
<g id="edge1" class="edge">
<title>AppComponent&#45;&gt;AppModule</title>
<path fill="none" stroke="black" d="M507,-161.02C507,-181.17 507,-210.8 507,-210.8 507,-210.8 340.77,-210.8 340.77,-210.8"/>
<polygon fill="black" stroke="black" points="340.77,-207.3 330.77,-210.8 340.77,-214.3 340.77,-207.3"/>
</g>
<!-- AppComponent  -->
<g id="node6" class="node">
<title>AppComponent </title>
<polygon fill="#80b1d3" stroke="black" points="343.44,-296.8 234.56,-296.8 234.56,-260.8 343.44,-260.8 343.44,-296.8"/>
<text text-anchor="middle" x="289" y="-274.6" font-family="Times,serif" font-size="14.00">AppComponent </text>
</g>
<!-- AppModule&#45;&gt;AppComponent  -->
<g id="edge5" class="edge">
<title>AppModule&#45;&gt;AppComponent </title>
<path fill="none" stroke="black" stroke-dasharray="1,5" d="M289,-229.02C289,-229.02 289,-250.53 289,-250.53"/>
<polygon fill="black" stroke="black" points="285.5,-250.53 289,-260.53 292.5,-250.53 285.5,-250.53"/>
</g>
<!-- CoreModule.forRoot() -->
<g id="node3" class="node">
<title>CoreModule.forRoot()</title>
<polygon fill="#8dd3c7" stroke="black" points="283.63,-160.8 280.63,-164.8 259.63,-164.8 256.63,-160.8 140.37,-160.8 140.37,-124.8 283.63,-124.8 283.63,-160.8"/>
<text text-anchor="middle" x="212" y="-138.6" font-family="Times,serif" font-size="14.00">CoreModule.forRoot()</text>
</g>
<!-- CoreModule.forRoot()&#45;&gt;AppModule -->
<g id="edge2" class="edge">
<title>CoreModule.forRoot()&#45;&gt;AppModule</title>
<path fill="none" stroke="black" d="M265.37,-161.02C265.37,-161.02 265.37,-182.53 265.37,-182.53"/>
<polygon fill="black" stroke="black" points="261.87,-182.53 265.37,-192.53 268.87,-182.53 261.87,-182.53"/>
</g>
<!-- SharedModule -->
<g id="node4" class="node">
<title>SharedModule</title>
<polygon fill="#8dd3c7" stroke="black" points="122.42,-160.8 119.42,-164.8 98.42,-164.8 95.42,-160.8 23.58,-160.8 23.58,-124.8 122.42,-124.8 122.42,-160.8"/>
<text text-anchor="middle" x="73" y="-138.6" font-family="Times,serif" font-size="14.00">SharedModule</text>
</g>
<!-- SharedModule&#45;&gt;AppModule -->
<g id="edge3" class="edge">
<title>SharedModule&#45;&gt;AppModule</title>
<path fill="none" stroke="black" d="M73,-161.02C73,-181.17 73,-210.8 73,-210.8 73,-210.8 237.1,-210.8 237.1,-210.8"/>
<polygon fill="black" stroke="black" points="237.1,-214.3 247.1,-210.8 237.1,-207.3 237.1,-214.3"/>
</g>
<!-- AppRoutingModule -->
<g id="node5" class="node">
<title>AppRoutingModule</title>
<polygon fill="#8dd3c7" stroke="black" points="430.27,-160.8 427.27,-164.8 406.27,-164.8 403.27,-160.8 301.73,-160.8 301.73,-124.8 430.27,-124.8 430.27,-160.8"/>
<text text-anchor="middle" x="366" y="-138.6" font-family="Times,serif" font-size="14.00">AppRoutingModule</text>
</g>
<!-- AppRoutingModule&#45;&gt;AppModule -->
<g id="edge4" class="edge">
<title>AppRoutingModule&#45;&gt;AppModule</title>
<path fill="none" stroke="black" d="M316.22,-161.02C316.22,-161.02 316.22,-182.53 316.22,-182.53"/>
<polygon fill="black" stroke="black" points="312.72,-182.53 316.22,-192.53 319.72,-182.53 312.72,-182.53"/>
</g>
<!-- CoreModule -->
<g id="node20" class="node">
<title>CoreModule</title>
<polygon fill="#8dd3c7" stroke="black" points="2344.26,-160.8 2341.26,-164.8 2320.26,-164.8 2317.26,-160.8 2257.74,-160.8 2257.74,-124.8 2344.26,-124.8 2344.26,-160.8"/>
<text text-anchor="middle" x="2301" y="-138.6" font-family="Times,serif" font-size="14.00">CoreModule</text>
</g>
<!-- AppRoutingModule&#45;&gt;CoreModule -->
<g id="edge22" class="edge">
<title>AppRoutingModule&#45;&gt;CoreModule</title>
<path fill="none" stroke="black" d="M386.93,-160.99C386.93,-169.08 386.93,-176.8 386.93,-176.8 386.93,-176.8 2286.54,-176.8 2286.54,-176.8 2286.54,-176.8 2286.54,-170.99 2286.54,-170.99"/>
<polygon fill="black" stroke="black" points="2290.04,-170.99 2286.54,-160.99 2283.04,-170.99 2290.04,-170.99"/>
</g>
<!-- LoginComponent -->
<g id="node7" class="node">
<title>LoginComponent</title>
<polygon fill="#ffffb3" stroke="black" points="2572.28,-84.8 2457.72,-84.8 2457.72,-48.8 2572.28,-48.8 2572.28,-84.8"/>
<text text-anchor="middle" x="2515" y="-62.6" font-family="Times,serif" font-size="14.00">LoginComponent</text>
</g>
<!-- LoginComponent&#45;&gt;CoreModule -->
<g id="edge6" class="edge">
<title>LoginComponent&#45;&gt;CoreModule</title>
<path fill="none" stroke="black" d="M2515,-85.07C2515,-103.36 2515,-128.8 2515,-128.8 2515,-128.8 2354.31,-128.8 2354.31,-128.8"/>
<polygon fill="black" stroke="black" points="2354.31,-125.3 2344.31,-128.8 2354.31,-132.3 2354.31,-125.3"/>
</g>
<!-- LogoutComponent -->
<g id="node8" class="node">
<title>LogoutComponent</title>
<polygon fill="#ffffb3" stroke="black" points="2439.78,-84.8 2318.22,-84.8 2318.22,-48.8 2439.78,-48.8 2439.78,-84.8"/>
<text text-anchor="middle" x="2379" y="-62.6" font-family="Times,serif" font-size="14.00">LogoutComponent</text>
</g>
<!-- LogoutComponent&#45;&gt;CoreModule -->
<g id="edge7" class="edge">
<title>LogoutComponent&#45;&gt;CoreModule</title>
<path fill="none" stroke="black" d="M2331.25,-84.81C2331.25,-84.81 2331.25,-114.65 2331.25,-114.65"/>
<polygon fill="black" stroke="black" points="2327.75,-114.65 2331.25,-124.65 2334.75,-114.65 2327.75,-114.65"/>
</g>
<!-- PublicHomeComponent -->
<g id="node9" class="node">
<title>PublicHomeComponent</title>
<polygon fill="#ffffb3" stroke="black" points="2299.82,-84.8 2148.18,-84.8 2148.18,-48.8 2299.82,-48.8 2299.82,-84.8"/>
<text text-anchor="middle" x="2224" y="-62.6" font-family="Times,serif" font-size="14.00">PublicHomeComponent</text>
</g>
<!-- PublicHomeComponent&#45;&gt;CoreModule -->
<g id="edge8" class="edge">
<title>PublicHomeComponent&#45;&gt;CoreModule</title>
<path fill="none" stroke="black" d="M2278.64,-84.81C2278.64,-84.81 2278.64,-114.65 2278.64,-114.65"/>
<polygon fill="black" stroke="black" points="2275.14,-114.65 2278.64,-124.65 2282.14,-114.65 2275.14,-114.65"/>
</g>
<!-- PublicNavbarComponent -->
<g id="node10" class="node">
<title>PublicNavbarComponent</title>
<polygon fill="#ffffb3" stroke="black" points="2130.31,-84.8 1971.69,-84.8 1971.69,-48.8 2130.31,-48.8 2130.31,-84.8"/>
<text text-anchor="middle" x="2051" y="-62.6" font-family="Times,serif" font-size="14.00">PublicNavbarComponent</text>
</g>
<!-- PublicNavbarComponent&#45;&gt;CoreModule -->
<g id="edge9" class="edge">
<title>PublicNavbarComponent&#45;&gt;CoreModule</title>
<path fill="none" stroke="black" d="M2051,-85.07C2051,-103.36 2051,-128.8 2051,-128.8 2051,-128.8 2247.45,-128.8 2247.45,-128.8"/>
<polygon fill="black" stroke="black" points="2247.45,-132.3 2257.45,-128.8 2247.45,-125.3 2247.45,-132.3"/>
</g>
<!-- PublicFooterComponent -->
<g id="node11" class="node">
<title>PublicFooterComponent</title>
<polygon fill="#ffffb3" stroke="black" points="3946.66,-84.8 3793.34,-84.8 3793.34,-48.8 3946.66,-48.8 3946.66,-84.8"/>
<text text-anchor="middle" x="3870" y="-62.6" font-family="Times,serif" font-size="14.00">PublicFooterComponent</text>
</g>
<!-- PublicFooterComponent&#45;&gt;CoreModule -->
<g id="edge10" class="edge">
<title>PublicFooterComponent&#45;&gt;CoreModule</title>
<path fill="none" stroke="black" d="M3870,-85.22C3870,-111.81 3870,-157.8 3870,-157.8 3870,-157.8 2354.6,-157.8 2354.6,-157.8"/>
<polygon fill="black" stroke="black" points="2354.6,-154.3 2344.6,-157.8 2354.6,-161.3 2354.6,-154.3"/>
</g>
<!-- P404Component -->
<g id="node12" class="node">
<title>P404Component</title>
<polygon fill="#ffffb3" stroke="black" points="3775.12,-84.8 3664.88,-84.8 3664.88,-48.8 3775.12,-48.8 3775.12,-84.8"/>
<text text-anchor="middle" x="3720" y="-62.6" font-family="Times,serif" font-size="14.00">P404Component</text>
</g>
<!-- P404Component&#45;&gt;CoreModule -->
<g id="edge11" class="edge">
<title>P404Component&#45;&gt;CoreModule</title>
<path fill="none" stroke="black" d="M3720,-85.03C3720,-110.81 3720,-154.8 3720,-154.8 3720,-154.8 2354.63,-154.8 2354.63,-154.8"/>
<polygon fill="black" stroke="black" points="2354.63,-151.3 2344.63,-154.8 2354.63,-158.3 2354.63,-151.3"/>
</g>
<!-- P403Component -->
<g id="node13" class="node">
<title>P403Component</title>
<polygon fill="#ffffb3" stroke="black" points="3647.12,-84.8 3536.88,-84.8 3536.88,-48.8 3647.12,-48.8 3647.12,-84.8"/>
<text text-anchor="middle" x="3592" y="-62.6" font-family="Times,serif" font-size="14.00">P403Component</text>
</g>
<!-- P403Component&#45;&gt;CoreModule -->
<g id="edge12" class="edge">
<title>P403Component&#45;&gt;CoreModule</title>
<path fill="none" stroke="black" d="M3592,-84.83C3592,-109.78 3592,-151.8 3592,-151.8 3592,-151.8 2354.32,-151.8 2354.32,-151.8"/>
<polygon fill="black" stroke="black" points="2354.32,-148.3 2344.32,-151.8 2354.32,-155.3 2354.32,-148.3"/>
</g>
<!-- P401Component -->
<g id="node14" class="node">
<title>P401Component</title>
<polygon fill="#ffffb3" stroke="black" points="3519.12,-84.8 3408.88,-84.8 3408.88,-48.8 3519.12,-48.8 3519.12,-84.8"/>
<text text-anchor="middle" x="3464" y="-62.6" font-family="Times,serif" font-size="14.00">P401Component</text>
</g>
<!-- P401Component&#45;&gt;CoreModule -->
<g id="edge13" class="edge">
<title>P401Component&#45;&gt;CoreModule</title>
<path fill="none" stroke="black" d="M3464,-85.18C3464,-109.08 3464,-147.8 3464,-147.8 3464,-147.8 2354.47,-147.8 2354.47,-147.8"/>
<polygon fill="black" stroke="black" points="2354.47,-144.3 2344.47,-147.8 2354.47,-151.3 2354.47,-144.3"/>
</g>
<!-- E500Component -->
<g id="node15" class="node">
<title>E500Component</title>
<polygon fill="#ffffb3" stroke="black" points="3390.39,-84.8 3279.61,-84.8 3279.61,-48.8 3390.39,-48.8 3390.39,-84.8"/>
<text text-anchor="middle" x="3335" y="-62.6" font-family="Times,serif" font-size="14.00">E500Component</text>
</g>
<!-- E500Component&#45;&gt;CoreModule -->
<g id="edge14" class="edge">
<title>E500Component&#45;&gt;CoreModule</title>
<path fill="none" stroke="black" d="M3335,-84.89C3335,-107.93 3335,-144.8 3335,-144.8 3335,-144.8 2354.44,-144.8 2354.44,-144.8"/>
<polygon fill="black" stroke="black" points="2354.44,-141.3 2344.44,-144.8 2354.44,-148.3 2354.44,-141.3"/>
</g>
<!-- PrivateHomeComponent -->
<g id="node16" class="node">
<title>PrivateHomeComponent</title>
<polygon fill="#ffffb3" stroke="black" points="3261.7,-84.8 3106.3,-84.8 3106.3,-48.8 3261.7,-48.8 3261.7,-84.8"/>
<text text-anchor="middle" x="3184" y="-62.6" font-family="Times,serif" font-size="14.00">PrivateHomeComponent</text>
</g>
<!-- PrivateHomeComponent&#45;&gt;CoreModule -->
<g id="edge15" class="edge">
<title>PrivateHomeComponent&#45;&gt;CoreModule</title>
<path fill="none" stroke="black" d="M3184,-84.96C3184,-107.15 3184,-141.8 3184,-141.8 3184,-141.8 2354.49,-141.8 2354.49,-141.8"/>
<polygon fill="black" stroke="black" points="2354.49,-138.3 2344.49,-141.8 2354.49,-145.3 2354.49,-138.3"/>
</g>
<!-- PrivateNavbarComponent -->
<g id="node17" class="node">
<title>PrivateNavbarComponent</title>
<polygon fill="#ffffb3" stroke="black" points="3088.18,-84.8 2925.82,-84.8 2925.82,-48.8 3088.18,-48.8 3088.18,-84.8"/>
<text text-anchor="middle" x="3007" y="-62.6" font-family="Times,serif" font-size="14.00">PrivateNavbarComponent</text>
</g>
<!-- PrivateNavbarComponent&#45;&gt;CoreModule -->
<g id="edge16" class="edge">
<title>PrivateNavbarComponent&#45;&gt;CoreModule</title>
<path fill="none" stroke="black" d="M3007,-84.97C3007,-106.3 3007,-138.8 3007,-138.8 3007,-138.8 2354.37,-138.8 2354.37,-138.8"/>
<polygon fill="black" stroke="black" points="2354.37,-135.3 2344.37,-138.8 2354.37,-142.3 2354.37,-135.3"/>
</g>
<!-- PrivateFooterComponent -->
<g id="node18" class="node">
<title>PrivateFooterComponent</title>
<polygon fill="#ffffb3" stroke="black" points="2907.54,-84.8 2750.46,-84.8 2750.46,-48.8 2907.54,-48.8 2907.54,-84.8"/>
<text text-anchor="middle" x="2829" y="-62.6" font-family="Times,serif" font-size="14.00">PrivateFooterComponent</text>
</g>
<!-- PrivateFooterComponent&#45;&gt;CoreModule -->
<g id="edge17" class="edge">
<title>PrivateFooterComponent&#45;&gt;CoreModule</title>
<path fill="none" stroke="black" d="M2829,-85.02C2829,-105.17 2829,-134.8 2829,-134.8 2829,-134.8 2354.66,-134.8 2354.66,-134.8"/>
<polygon fill="black" stroke="black" points="2354.66,-131.3 2344.66,-134.8 2354.66,-138.3 2354.66,-131.3"/>
</g>
<!-- DashboardComponent -->
<g id="node19" class="node">
<title>DashboardComponent</title>
<polygon fill="#ffffb3" stroke="black" points="2731.97,-84.8 2590.03,-84.8 2590.03,-48.8 2731.97,-48.8 2731.97,-84.8"/>
<text text-anchor="middle" x="2661" y="-62.6" font-family="Times,serif" font-size="14.00">DashboardComponent</text>
</g>
<!-- DashboardComponent&#45;&gt;CoreModule -->
<g id="edge18" class="edge">
<title>DashboardComponent&#45;&gt;CoreModule</title>
<path fill="none" stroke="black" d="M2661,-84.91C2661,-104.14 2661,-131.8 2661,-131.8 2661,-131.8 2354.42,-131.8 2354.42,-131.8"/>
<polygon fill="black" stroke="black" points="2354.42,-128.3 2344.42,-131.8 2354.42,-135.3 2354.42,-128.3"/>
</g>
<!-- CommonModule  -->
<g id="node26" class="node">
<title>CommonModule </title>
<polygon fill="#fb8072" stroke="black" points="2358.67,-228.8 2243.33,-228.8 2243.33,-192.8 2358.67,-192.8 2358.67,-228.8"/>
<text text-anchor="middle" x="2301" y="-206.6" font-family="Times,serif" font-size="14.00">CommonModule </text>
</g>
<!-- CoreModule&#45;&gt;CommonModule  -->
<g id="edge25" class="edge">
<title>CoreModule&#45;&gt;CommonModule </title>
<path fill="none" stroke="black" stroke-dasharray="5,2" d="M2315.46,-161.02C2315.46,-161.02 2315.46,-182.53 2315.46,-182.53"/>
<polygon fill="black" stroke="black" points="2311.96,-182.53 2315.46,-192.53 2318.96,-182.53 2311.96,-182.53"/>
</g>
<!-- BrowserModule -->
<g id="node21" class="node">
<title>BrowserModule</title>
<polygon fill="#8dd3c7" stroke="black" points="1026.47,-84.8 1023.47,-88.8 1002.47,-88.8 999.47,-84.8 919.53,-84.8 919.53,-48.8 1026.47,-48.8 1026.47,-84.8"/>
<text text-anchor="middle" x="973" y="-62.6" font-family="Times,serif" font-size="14.00">BrowserModule</text>
</g>
<!-- BrowserModule&#45;&gt;CoreModule -->
<g id="edge19" class="edge">
<title>BrowserModule&#45;&gt;CoreModule</title>
<path fill="none" stroke="black" d="M973,-85.03C973,-109.73 973,-150.8 973,-150.8 973,-150.8 2247.57,-150.8 2247.57,-150.8"/>
<polygon fill="black" stroke="black" points="2247.57,-154.3 2257.57,-150.8 2247.57,-147.3 2247.57,-154.3"/>
</g>
<!-- CommonModule -->
<g id="node22" class="node">
<title>CommonModule</title>
<polygon fill="#8dd3c7" stroke="black" points="901.67,-84.8 898.67,-88.8 877.67,-88.8 874.67,-84.8 790.33,-84.8 790.33,-48.8 901.67,-48.8 901.67,-84.8"/>
<text text-anchor="middle" x="846" y="-62.6" font-family="Times,serif" font-size="14.00">CommonModule</text>
</g>
<!-- CommonModule&#45;&gt;SharedModule -->
<g id="edge34" class="edge">
<title>CommonModule&#45;&gt;SharedModule</title>
<path fill="none" stroke="black" d="M818.08,-84.84C818.08,-97.36 818.08,-111.8 818.08,-111.8 818.08,-111.8 89.28,-111.8 89.28,-111.8 89.28,-111.8 89.28,-114.77 89.28,-114.77"/>
<polygon fill="black" stroke="black" points="85.78,-114.77 89.28,-124.77 92.78,-114.77 85.78,-114.77"/>
</g>
<!-- CommonModule&#45;&gt;CoreModule -->
<g id="edge20" class="edge">
<title>CommonModule&#45;&gt;CoreModule</title>
<path fill="none" stroke="black" d="M873.92,-84.83C873.92,-110.31 873.92,-153.8 873.92,-153.8 873.92,-153.8 2247.51,-153.8 2247.51,-153.8"/>
<polygon fill="black" stroke="black" points="2247.51,-157.3 2257.51,-153.8 2247.51,-150.3 2247.51,-157.3"/>
</g>
<!-- FeatureModuleDemoModule -->
<g id="node31" class="node">
<title>FeatureModuleDemoModule</title>
<polygon fill="#8dd3c7" stroke="black" points="4177.79,-160.8 4174.79,-164.8 4153.79,-164.8 4150.79,-160.8 3998.21,-160.8 3998.21,-124.8 4177.79,-124.8 4177.79,-160.8"/>
<text text-anchor="middle" x="4088" y="-138.6" font-family="Times,serif" font-size="14.00">FeatureModuleDemoModule</text>
</g>
<!-- CommonModule&#45;&gt;FeatureModuleDemoModule -->
<g id="edge30" class="edge">
<title>CommonModule&#45;&gt;FeatureModuleDemoModule</title>
<path fill="none" stroke="black" d="M846,-85.04C846,-92.23 846,-98.8 846,-98.8 846,-98.8 4058.12,-98.8 4058.12,-98.8 4058.12,-98.8 4058.12,-114.65 4058.12,-114.65"/>
<polygon fill="black" stroke="black" points="4054.62,-114.65 4058.12,-124.65 4061.62,-114.65 4054.62,-114.65"/>
</g>
<!-- BrowserAnimationsModule -->
<g id="node23" class="node">
<title>BrowserAnimationsModule</title>
<polygon fill="#8dd3c7" stroke="black" points="772.3,-84.8 769.3,-88.8 748.3,-88.8 745.3,-84.8 599.7,-84.8 599.7,-48.8 772.3,-48.8 772.3,-84.8"/>
<text text-anchor="middle" x="686" y="-62.6" font-family="Times,serif" font-size="14.00">BrowserAnimationsModule</text>
</g>
<!-- BrowserAnimationsModule&#45;&gt;CoreModule -->
<g id="edge21" class="edge">
<title>BrowserAnimationsModule&#45;&gt;CoreModule</title>
<path fill="none" stroke="black" d="M686,-85.22C686,-111.81 686,-157.8 686,-157.8 686,-157.8 2247.38,-157.8 2247.38,-157.8"/>
<polygon fill="black" stroke="black" points="2247.38,-161.3 2257.38,-157.8 2247.38,-154.3 2247.38,-161.3"/>
</g>
<!-- HttpClientModule -->
<g id="node24" class="node">
<title>HttpClientModule</title>
<polygon fill="#8dd3c7" stroke="black" points="1334.16,-84.8 1331.16,-88.8 1310.16,-88.8 1307.16,-84.8 1215.84,-84.8 1215.84,-48.8 1334.16,-48.8 1334.16,-84.8"/>
<text text-anchor="middle" x="1275" y="-62.6" font-family="Times,serif" font-size="14.00">HttpClientModule</text>
</g>
<!-- HttpClientModule&#45;&gt;CoreModule -->
<g id="edge23" class="edge">
<title>HttpClientModule&#45;&gt;CoreModule</title>
<path fill="none" stroke="black" d="M1275,-84.81C1275,-107.29 1275,-142.8 1275,-142.8 1275,-142.8 2247.57,-142.8 2247.57,-142.8"/>
<polygon fill="black" stroke="black" points="2247.57,-146.3 2257.57,-142.8 2247.57,-139.3 2247.57,-146.3"/>
</g>
<!-- OAuthModule.forRoot() -->
<g id="node25" class="node">
<title>OAuthModule.forRoot()</title>
<polygon fill="#8dd3c7" stroke="black" points="1198.02,-84.8 1195.02,-88.8 1174.02,-88.8 1171.02,-84.8 1043.98,-84.8 1043.98,-48.8 1198.02,-48.8 1198.02,-84.8"/>
<text text-anchor="middle" x="1121" y="-62.6" font-family="Times,serif" font-size="14.00">OAuthModule.forRoot()</text>
</g>
<!-- OAuthModule.forRoot()&#45;&gt;CoreModule -->
<g id="edge24" class="edge">
<title>OAuthModule.forRoot()&#45;&gt;CoreModule</title>
<path fill="none" stroke="black" d="M1121,-84.95C1121,-108.56 1121,-146.8 1121,-146.8 1121,-146.8 2247.6,-146.8 2247.6,-146.8"/>
<polygon fill="black" stroke="black" points="2247.6,-150.3 2257.6,-146.8 2247.6,-143.3 2247.6,-150.3"/>
</g>
<!-- AuthGuard -->
<g id="node27" class="node">
<title>AuthGuard</title>
<ellipse fill="#fdb462" stroke="black" cx="1894" cy="-66.8" rx="54.46" ry="18"/>
<text text-anchor="middle" x="1894" y="-62.6" font-family="Times,serif" font-size="14.00">AuthGuard</text>
</g>
<!-- AuthGuard&#45;&gt;CoreModule -->
<g id="edge26" class="edge">
<title>AuthGuard&#45;&gt;CoreModule</title>
<path fill="none" stroke="black" d="M1894,-84.83C1894,-104.38 1894,-132.8 1894,-132.8 1894,-132.8 2247.44,-132.8 2247.44,-132.8"/>
<polygon fill="black" stroke="black" points="2247.44,-136.3 2257.44,-132.8 2247.44,-129.3 2247.44,-136.3"/>
</g>
<!-- HTTP_INTERCEPTOR_PROVIDERS -->
<g id="node28" class="node">
<title>HTTP_INTERCEPTOR_PROVIDERS</title>
<ellipse fill="#fdb462" stroke="black" cx="1658" cy="-66.8" rx="163.84" ry="18"/>
<text text-anchor="middle" x="1658" y="-62.6" font-family="Times,serif" font-size="14.00">HTTP_INTERCEPTOR_PROVIDERS</text>
</g>
<!-- HTTP_INTERCEPTOR_PROVIDERS&#45;&gt;CoreModule -->
<g id="edge27" class="edge">
<title>HTTP_INTERCEPTOR_PROVIDERS&#45;&gt;CoreModule</title>
<path fill="none" stroke="black" d="M1658,-84.93C1658,-105.37 1658,-135.8 1658,-135.8 1658,-135.8 2247.56,-135.8 2247.56,-135.8"/>
<polygon fill="black" stroke="black" points="2247.56,-139.3 2257.56,-135.8 2247.56,-132.3 2247.56,-139.3"/>
</g>
<!-- AuthService -->
<g id="node29" class="node">
<title>AuthService</title>
<ellipse fill="#fdb462" stroke="black" cx="1417" cy="-66.8" rx="59.11" ry="18"/>
<text text-anchor="middle" x="1417" y="-62.6" font-family="Times,serif" font-size="14.00">AuthService</text>
</g>
<!-- AuthService&#45;&gt;CoreModule -->
<g id="edge28" class="edge">
<title>AuthService&#45;&gt;CoreModule</title>
<path fill="none" stroke="black" d="M1417,-84.84C1417,-106.46 1417,-139.8 1417,-139.8 1417,-139.8 2247.46,-139.8 2247.46,-139.8"/>
<polygon fill="black" stroke="black" points="2247.46,-143.3 2257.46,-139.8 2247.46,-136.3 2247.46,-143.3"/>
</g>
<!-- FeatureModuleDemoComponent -->
<g id="node30" class="node">
<title>FeatureModuleDemoComponent</title>
<polygon fill="#ffffb3" stroke="black" points="4188.57,-84.8 3987.43,-84.8 3987.43,-48.8 4188.57,-48.8 4188.57,-84.8"/>
<text text-anchor="middle" x="4088" y="-62.6" font-family="Times,serif" font-size="14.00">FeatureModuleDemoComponent</text>
</g>
<!-- FeatureModuleDemoComponent&#45;&gt;FeatureModuleDemoModule -->
<g id="edge29" class="edge">
<title>FeatureModuleDemoComponent&#45;&gt;FeatureModuleDemoModule</title>
<path fill="none" stroke="black" d="M4117.88,-84.81C4117.88,-84.81 4117.88,-114.65 4117.88,-114.65"/>
<polygon fill="black" stroke="black" points="4114.38,-114.65 4117.88,-124.65 4121.38,-114.65 4114.38,-114.65"/>
</g>
<!-- FeatureModuleDemoRoutingModule -->
<g id="node32" class="node">
<title>FeatureModuleDemoRoutingModule</title>
<polygon fill="#8dd3c7" stroke="black" points="4437.41,-84.8 4434.41,-88.8 4413.41,-88.8 4410.41,-84.8 4212.59,-84.8 4212.59,-48.8 4437.41,-48.8 4437.41,-84.8"/>
<text text-anchor="middle" x="4325" y="-62.6" font-family="Times,serif" font-size="14.00">FeatureModuleDemoRoutingModule</text>
</g>
<!-- FeatureModuleDemoRoutingModule&#45;&gt;FeatureModuleDemoModule -->
<g id="edge31" class="edge">
<title>FeatureModuleDemoRoutingModule&#45;&gt;FeatureModuleDemoModule</title>
<path fill="none" stroke="black" d="M4325,-84.81C4325,-107.29 4325,-142.8 4325,-142.8 4325,-142.8 4187.94,-142.8 4187.94,-142.8"/>
<polygon fill="black" stroke="black" points="4187.94,-139.3 4177.94,-142.8 4187.94,-146.3 4187.94,-139.3"/>
</g>
<!-- RouterModule  -->
<g id="node34" class="node">
<title>RouterModule </title>
<polygon fill="#fb8072" stroke="black" points="4578.65,-160.8 4477.35,-160.8 4477.35,-124.8 4578.65,-124.8 4578.65,-160.8"/>
<text text-anchor="middle" x="4528" y="-138.6" font-family="Times,serif" font-size="14.00">RouterModule </text>
</g>
<!-- FeatureModuleDemoRoutingModule&#45;&gt;RouterModule  -->
<g id="edge33" class="edge">
<title>FeatureModuleDemoRoutingModule&#45;&gt;RouterModule </title>
<path fill="none" stroke="black" stroke-dasharray="5,2" d="M4437.48,-72.8C4484.32,-72.8 4528,-72.8 4528,-72.8 4528,-72.8 4528,-114.77 4528,-114.77"/>
<polygon fill="black" stroke="black" points="4524.5,-114.77 4528,-124.77 4531.5,-114.77 4524.5,-114.77"/>
</g>
<!-- RouterModule.forChild(args) -->
<g id="node33" class="node">
<title>RouterModule.forChild(args)</title>
<polygon fill="#8dd3c7" stroke="black" points="4784.73,-160.8 4781.73,-164.8 4760.73,-164.8 4757.73,-160.8 4603.27,-160.8 4603.27,-124.8 4784.73,-124.8 4784.73,-160.8"/>
<text text-anchor="middle" x="4694" y="-138.6" font-family="Times,serif" font-size="14.00">RouterModule.forChild(args)</text>
</g>
<!-- RouterModule.forChild(args)&#45;&gt;FeatureModuleDemoRoutingModule -->
<g id="edge32" class="edge">
<title>RouterModule.forChild(args)&#45;&gt;FeatureModuleDemoRoutingModule</title>
<path fill="none" stroke="black" d="M4694,-124.6C4694,-100.44 4694,-60.8 4694,-60.8 4694,-60.8 4447.22,-60.8 4447.22,-60.8"/>
<polygon fill="black" stroke="black" points="4447.22,-57.3 4437.22,-60.8 4447.22,-64.3 4447.22,-57.3"/>
</g>
<!-- RouterModule -->
<g id="node35" class="node">
<title>RouterModule</title>
<polygon fill="#8dd3c7" stroke="black" points="121.65,-84.8 118.65,-88.8 97.65,-88.8 94.65,-84.8 24.35,-84.8 24.35,-48.8 121.65,-48.8 121.65,-84.8"/>
<text text-anchor="middle" x="73" y="-62.6" font-family="Times,serif" font-size="14.00">RouterModule</text>
</g>
<!-- RouterModule&#45;&gt;SharedModule -->
<g id="edge35" class="edge">
<title>RouterModule&#45;&gt;SharedModule</title>
<path fill="none" stroke="black" d="M56.72,-84.81C56.72,-84.81 56.72,-114.65 56.72,-114.65"/>
<polygon fill="black" stroke="black" points="53.22,-114.65 56.72,-124.65 60.22,-114.65 53.22,-114.65"/>
</g>
</g>
</svg>
