<?xml version="1.0" encoding="UTF-8" standalone="no"?>
<!DOCTYPE svg PUBLIC "-//W3C//DTD SVG 1.1//EN"
 "http://www.w3.org/Graphics/SVG/1.1/DTD/svg11.dtd">
<!-- Generated by graphviz version 2.47.3 (20210619.1520)
 -->
<!-- Title: dependencies Pages: 1 -->
<svg width="4384pt" height="329pt"
 viewBox="0.00 0.00 4384.00 328.80" xmlns="http://www.w3.org/2000/svg" xmlns:xlink="http://www.w3.org/1999/xlink">
<g id="graph0" class="graph" transform="scale(1 1) rotate(0) translate(4 324.8)">
<title>dependencies</title>
<polygon fill="white" stroke="transparent" points="-4,4 -4,-324.8 4380,-324.8 4380,4 -4,4"/>
<text text-anchor="middle" x="2188" y="-8.2" font-family="sans-serif" font-size="14.00">dependencies</text>
<g id="clust1" class="cluster">
<title>cluster_AppModule</title>
<polygon fill="none" stroke="black" stroke-dasharray="1,5" points="8,-108.8 8,-312.8 576,-312.8 576,-108.8 8,-108.8"/>
</g>
<g id="clust2" class="cluster">
<title>cluster_AppModule_declarations</title>
<polygon fill="none" stroke="black" points="446,-116.8 446,-168.8 568,-168.8 568,-116.8 446,-116.8"/>
</g>
<g id="clust4" class="cluster">
<title>cluster_AppModule_imports</title>
<polygon fill="none" stroke="black" points="16,-116.8 16,-168.8 438,-168.8 438,-116.8 16,-116.8"/>
</g>
<g id="clust6" class="cluster">
<title>cluster_AppModule_bootstrap</title>
<polygon fill="none" stroke="black" points="227,-252.8 227,-304.8 351,-304.8 351,-252.8 227,-252.8"/>
</g>
<g id="clust8" class="cluster">
<title>cluster_CoreModule</title>
<polygon fill="none" stroke="black" stroke-dasharray="1,5" points="584,-32.8 584,-244.8 3530,-244.8 3530,-32.8 584,-32.8"/>
</g>
<g id="clust9" class="cluster">
<title>cluster_CoreModule_declarations</title>
<polygon fill="none" stroke="black" points="1531,-40.8 1531,-92.8 3522,-92.8 3522,-40.8 1531,-40.8"/>
</g>
<g id="clust23" class="cluster">
<title>cluster_CoreModule_imports</title>
<polygon fill="none" stroke="black" points="592,-40.8 592,-92.8 1171,-92.8 1171,-40.8 592,-40.8"/>
</g>
<g id="clust24" class="cluster">
<title>cluster_CoreModule_exports</title>
<polygon fill="none" stroke="black" points="1959,-184.8 1959,-236.8 2091,-236.8 2091,-184.8 1959,-184.8"/>
</g>
<g id="clust26" class="cluster">
<title>cluster_CoreModule_providers</title>
<polygon fill="none" stroke="black" points="1179,-40.8 1179,-92.8 1523,-92.8 1523,-40.8 1179,-40.8"/>
</g>
<g id="clust27" class="cluster">
<title>cluster_FeatureModuleDemoModule</title>
<polygon fill="none" stroke="black" stroke-dasharray="1,5" points="3538,-32.8 3538,-168.8 4020,-168.8 4020,-32.8 3538,-32.8"/>
</g>
<g id="clust28" class="cluster">
<title>cluster_FeatureModuleDemoModule_declarations</title>
<polygon fill="none" stroke="black" points="3546,-40.8 3546,-92.8 3764,-92.8 3764,-40.8 3546,-40.8"/>
</g>
<g id="clust30" class="cluster">
<title>cluster_FeatureModuleDemoModule_imports</title>
<polygon fill="none" stroke="black" points="3772,-40.8 3772,-92.8 4012,-92.8 4012,-40.8 3772,-40.8"/>
</g>
<g id="clust34" class="cluster">
<title>cluster_FeatureModuleDemoRoutingModule</title>
<polygon fill="none" stroke="black" stroke-dasharray="1,5" points="4028,-108.8 4028,-176.8 4368,-176.8 4368,-108.8 4028,-108.8"/>
</g>
<g id="clust36" class="cluster">
<title>cluster_FeatureModuleDemoRoutingModule_imports</title>
<polygon fill="none" stroke="black" points="4162,-116.8 4162,-168.8 4360,-168.8 4360,-116.8 4162,-116.8"/>
</g>
<g id="clust37" class="cluster">
<title>cluster_FeatureModuleDemoRoutingModule_exports</title>
<polygon fill="none" stroke="black" points="4036,-116.8 4036,-168.8 4154,-168.8 4154,-116.8 4036,-116.8"/>
</g>
<g id="clust40" class="cluster">
<title>cluster_SharedModule</title>
<polygon fill="none" stroke="black" stroke-dasharray="1,5" points="8,-32.8 8,-100.8 138,-100.8 138,-32.8 8,-32.8"/>
</g>
<g id="clust42" class="cluster">
<title>cluster_SharedModule_imports</title>
<polygon fill="none" stroke="black" points="16,-40.8 16,-92.8 130,-92.8 130,-40.8 16,-40.8"/>
</g>
<!-- AppComponent -->
<g id="node1" class="node">
<title>AppComponent</title>
<polygon fill="#ffffb3" stroke="black" points="559.94,-160.8 454.06,-160.8 454.06,-124.8 559.94,-124.8 559.94,-160.8"/>
<text text-anchor="middle" x="507" y="-138.6" font-family="Times,serif" font-size="14.00">AppComponent</text>
</g>
<!-- AppModule -->
<g id="node2" class="node">
<title>AppModule</title>
<polygon fill="#8dd3c7" stroke="black" points="330.66,-228.8 327.66,-232.8 306.66,-232.8 303.66,-228.8 247.34,-228.8 247.34,-192.8 330.66,-192.8 330.66,-228.8"/>
<text text-anchor="middle" x="289" y="-206.6" font-family="Times,serif" font-size="14.00">AppModule</text>
</g>
<!-- AppComponent&#45;&gt;AppModule -->
<g id="edge1" class="edge">
<title>AppComponent&#45;&gt;AppModule</title>
<path fill="none" stroke="black" d="M507,-161.02C507,-181.17 507,-210.8 507,-210.8 507,-210.8 340.77,-210.8 340.77,-210.8"/>
<polygon fill="black" stroke="black" points="340.77,-207.3 330.77,-210.8 340.77,-214.3 340.77,-207.3"/>
</g>
<!-- AppComponent  -->
<g id="node6" class="node">
<title>AppComponent </title>
<polygon fill="#80b1d3" stroke="black" points="343.44,-296.8 234.56,-296.8 234.56,-260.8 343.44,-260.8 343.44,-296.8"/>
<text text-anchor="middle" x="289" y="-274.6" font-family="Times,serif" font-size="14.00">AppComponent </text>
</g>
<!-- AppModule&#45;&gt;AppComponent  -->
<g id="edge5" class="edge">
<title>AppModule&#45;&gt;AppComponent </title>
<path fill="none" stroke="black" stroke-dasharray="1,5" d="M289,-229.02C289,-229.02 289,-250.53 289,-250.53"/>
<polygon fill="black" stroke="black" points="285.5,-250.53 289,-260.53 292.5,-250.53 285.5,-250.53"/>
</g>
<!-- CoreModule.forRoot() -->
<g id="node3" class="node">
<title>CoreModule.forRoot()</title>
<polygon fill="#8dd3c7" stroke="black" points="283.63,-160.8 280.63,-164.8 259.63,-164.8 256.63,-160.8 140.37,-160.8 140.37,-124.8 283.63,-124.8 283.63,-160.8"/>
<text text-anchor="middle" x="212" y="-138.6" font-family="Times,serif" font-size="14.00">CoreModule.forRoot()</text>
</g>
<!-- CoreModule.forRoot()&#45;&gt;AppModule -->
<g id="edge2" class="edge">
<title>CoreModule.forRoot()&#45;&gt;AppModule</title>
<path fill="none" stroke="black" d="M265.37,-161.02C265.37,-161.02 265.37,-182.53 265.37,-182.53"/>
<polygon fill="black" stroke="black" points="261.87,-182.53 265.37,-192.53 268.87,-182.53 261.87,-182.53"/>
</g>
<!-- SharedModule -->
<g id="node4" class="node">
<title>SharedModule</title>
<polygon fill="#8dd3c7" stroke="black" points="122.42,-160.8 119.42,-164.8 98.42,-164.8 95.42,-160.8 23.58,-160.8 23.58,-124.8 122.42,-124.8 122.42,-160.8"/>
<text text-anchor="middle" x="73" y="-138.6" font-family="Times,serif" font-size="14.00">SharedModule</text>
</g>
<!-- SharedModule&#45;&gt;AppModule -->
<g id="edge3" class="edge">
<title>SharedModule&#45;&gt;AppModule</title>
<path fill="none" stroke="black" d="M73,-161.02C73,-181.17 73,-210.8 73,-210.8 73,-210.8 237.1,-210.8 237.1,-210.8"/>
<polygon fill="black" stroke="black" points="237.1,-214.3 247.1,-210.8 237.1,-207.3 237.1,-214.3"/>
</g>
<!-- AppRoutingModule -->
<g id="node5" class="node">
<title>AppRoutingModule</title>
<polygon fill="#8dd3c7" stroke="black" points="430.27,-160.8 427.27,-164.8 406.27,-164.8 403.27,-160.8 301.73,-160.8 301.73,-124.8 430.27,-124.8 430.27,-160.8"/>
<text text-anchor="middle" x="366" y="-138.6" font-family="Times,serif" font-size="14.00">AppRoutingModule</text>
</g>
<!-- AppRoutingModule&#45;&gt;AppModule -->
<g id="edge4" class="edge">
<title>AppRoutingModule&#45;&gt;AppModule</title>
<path fill="none" stroke="black" d="M316.22,-161.02C316.22,-161.02 316.22,-182.53 316.22,-182.53"/>
<polygon fill="black" stroke="black" points="312.72,-182.53 316.22,-192.53 319.72,-182.53 312.72,-182.53"/>
</g>
<!-- CoreModule -->
<g id="node20" class="node">
<title>CoreModule</title>
<polygon fill="#8dd3c7" stroke="black" points="2068.26,-160.8 2065.26,-164.8 2044.26,-164.8 2041.26,-160.8 1981.74,-160.8 1981.74,-124.8 2068.26,-124.8 2068.26,-160.8"/>
<text text-anchor="middle" x="2025" y="-138.6" font-family="Times,serif" font-size="14.00">CoreModule</text>
</g>
<!-- AppRoutingModule&#45;&gt;CoreModule -->
<g id="edge22" class="edge">
<title>AppRoutingModule&#45;&gt;CoreModule</title>
<path fill="none" stroke="black" d="M386.93,-160.99C386.93,-169.08 386.93,-176.8 386.93,-176.8 386.93,-176.8 2010.54,-176.8 2010.54,-176.8 2010.54,-176.8 2010.54,-170.99 2010.54,-170.99"/>
<polygon fill="black" stroke="black" points="2014.04,-170.99 2010.54,-160.99 2007.04,-170.99 2014.04,-170.99"/>
</g>
<!-- LoginComponent -->
<g id="node7" class="node">
<title>LoginComponent</title>
<polygon fill="#ffffb3" stroke="black" points="2998.28,-84.8 2883.72,-84.8 2883.72,-48.8 2998.28,-48.8 2998.28,-84.8"/>
<text text-anchor="middle" x="2941" y="-62.6" font-family="Times,serif" font-size="14.00">LoginComponent</text>
</g>
<!-- LoginComponent&#45;&gt;CoreModule -->
<g id="edge6" class="edge">
<title>LoginComponent&#45;&gt;CoreModule</title>
<path fill="none" stroke="black" d="M2941,-84.95C2941,-108.56 2941,-146.8 2941,-146.8 2941,-146.8 2078.56,-146.8 2078.56,-146.8"/>
<polygon fill="black" stroke="black" points="2078.56,-143.3 2068.56,-146.8 2078.56,-150.3 2078.56,-143.3"/>
</g>
<!-- LogoutComponent -->
<g id="node8" class="node">
<title>LogoutComponent</title>
<polygon fill="#ffffb3" stroke="black" points="2865.78,-84.8 2744.22,-84.8 2744.22,-48.8 2865.78,-48.8 2865.78,-84.8"/>
<text text-anchor="middle" x="2805" y="-62.6" font-family="Times,serif" font-size="14.00">LogoutComponent</text>
</g>
<!-- LogoutComponent&#45;&gt;CoreModule -->
<g id="edge7" class="edge">
<title>LogoutComponent&#45;&gt;CoreModule</title>
<path fill="none" stroke="black" d="M2805,-84.81C2805,-107.29 2805,-142.8 2805,-142.8 2805,-142.8 2078.33,-142.8 2078.33,-142.8"/>
<polygon fill="black" stroke="black" points="2078.33,-139.3 2068.33,-142.8 2078.33,-146.3 2078.33,-139.3"/>
</g>
<!-- PublicHomeComponent -->
<g id="node9" class="node">
<title>PublicHomeComponent</title>
<polygon fill="#ffffb3" stroke="black" points="2725.82,-84.8 2574.18,-84.8 2574.18,-48.8 2725.82,-48.8 2725.82,-84.8"/>
<text text-anchor="middle" x="2650" y="-62.6" font-family="Times,serif" font-size="14.00">PublicHomeComponent</text>
</g>
<!-- PublicHomeComponent&#45;&gt;CoreModule -->
<g id="edge8" class="edge">
<title>PublicHomeComponent&#45;&gt;CoreModule</title>
<path fill="none" stroke="black" d="M2650,-84.84C2650,-106.46 2650,-139.8 2650,-139.8 2650,-139.8 2078.45,-139.8 2078.45,-139.8"/>
<polygon fill="black" stroke="black" points="2078.45,-136.3 2068.45,-139.8 2078.45,-143.3 2078.45,-136.3"/>
</g>
<!-- PublicNavbarComponent -->
<g id="node10" class="node">
<title>PublicNavbarComponent</title>
<polygon fill="#ffffb3" stroke="black" points="2556.31,-84.8 2397.69,-84.8 2397.69,-48.8 2556.31,-48.8 2556.31,-84.8"/>
<text text-anchor="middle" x="2477" y="-62.6" font-family="Times,serif" font-size="14.00">PublicNavbarComponent</text>
</g>
<!-- PublicNavbarComponent&#45;&gt;CoreModule -->
<g id="edge9" class="edge">
<title>PublicNavbarComponent&#45;&gt;CoreModule</title>
<path fill="none" stroke="black" d="M2477,-84.93C2477,-105.37 2477,-135.8 2477,-135.8 2477,-135.8 2078.34,-135.8 2078.34,-135.8"/>
<polygon fill="black" stroke="black" points="2078.34,-132.3 2068.34,-135.8 2078.34,-139.3 2078.34,-132.3"/>
</g>
<!-- PublicFooterComponent -->
<g id="node11" class="node">
<title>PublicFooterComponent</title>
<polygon fill="#ffffb3" stroke="black" points="2379.66,-84.8 2226.34,-84.8 2226.34,-48.8 2379.66,-48.8 2379.66,-84.8"/>
<text text-anchor="middle" x="2303" y="-62.6" font-family="Times,serif" font-size="14.00">PublicFooterComponent</text>
</g>
<!-- PublicFooterComponent&#45;&gt;CoreModule -->
<g id="edge10" class="edge">
<title>PublicFooterComponent&#45;&gt;CoreModule</title>
<path fill="none" stroke="black" d="M2303,-84.83C2303,-104.38 2303,-132.8 2303,-132.8 2303,-132.8 2078.44,-132.8 2078.44,-132.8"/>
<polygon fill="black" stroke="black" points="2078.44,-129.3 2068.44,-132.8 2078.44,-136.3 2078.44,-129.3"/>
</g>
<!-- P404Component -->
<g id="node12" class="node">
<title>P404Component</title>
<polygon fill="#ffffb3" stroke="black" points="2208.12,-84.8 2097.88,-84.8 2097.88,-48.8 2208.12,-48.8 2208.12,-84.8"/>
<text text-anchor="middle" x="2153" y="-62.6" font-family="Times,serif" font-size="14.00">P404Component</text>
</g>
<!-- P404Component&#45;&gt;CoreModule -->
<g id="edge11" class="edge">
<title>P404Component&#45;&gt;CoreModule</title>
<path fill="none" stroke="black" d="M2153,-85.07C2153,-103.36 2153,-128.8 2153,-128.8 2153,-128.8 2078.33,-128.8 2078.33,-128.8"/>
<polygon fill="black" stroke="black" points="2078.33,-125.3 2068.33,-128.8 2078.33,-132.3 2078.33,-125.3"/>
</g>
<!-- P403Component -->
<g id="node13" class="node">
<title>P403Component</title>
<polygon fill="#ffffb3" stroke="black" points="2080.12,-84.8 1969.88,-84.8 1969.88,-48.8 2080.12,-48.8 2080.12,-84.8"/>
<text text-anchor="middle" x="2025" y="-62.6" font-family="Times,serif" font-size="14.00">P403Component</text>
</g>
<!-- P403Component&#45;&gt;CoreModule -->
<g id="edge12" class="edge">
<title>P403Component&#45;&gt;CoreModule</title>
<path fill="none" stroke="black" d="M2025,-84.81C2025,-84.81 2025,-114.65 2025,-114.65"/>
<polygon fill="black" stroke="black" points="2021.5,-114.65 2025,-124.65 2028.5,-114.65 2021.5,-114.65"/>
</g>
<!-- P401Component -->
<g id="node14" class="node">
<title>P401Component</title>
<polygon fill="#ffffb3" stroke="black" points="1952.12,-84.8 1841.88,-84.8 1841.88,-48.8 1952.12,-48.8 1952.12,-84.8"/>
<text text-anchor="middle" x="1897" y="-62.6" font-family="Times,serif" font-size="14.00">P401Component</text>
</g>
<!-- P401Component&#45;&gt;CoreModule -->
<g id="edge13" class="edge">
<title>P401Component&#45;&gt;CoreModule</title>
<path fill="none" stroke="black" d="M1897,-85.07C1897,-103.36 1897,-128.8 1897,-128.8 1897,-128.8 1971.67,-128.8 1971.67,-128.8"/>
<polygon fill="black" stroke="black" points="1971.67,-132.3 1981.67,-128.8 1971.67,-125.3 1971.67,-132.3"/>
</g>
<!-- E500Component -->
<g id="node15" class="node">
<title>E500Component</title>
<polygon fill="#ffffb3" stroke="black" points="1823.39,-84.8 1712.61,-84.8 1712.61,-48.8 1823.39,-48.8 1823.39,-84.8"/>
<text text-anchor="middle" x="1768" y="-62.6" font-family="Times,serif" font-size="14.00">E500Component</text>
</g>
<!-- E500Component&#45;&gt;CoreModule -->
<g id="edge14" class="edge">
<title>E500Component&#45;&gt;CoreModule</title>
<path fill="none" stroke="black" d="M1768,-84.83C1768,-104.38 1768,-132.8 1768,-132.8 1768,-132.8 1971.69,-132.8 1971.69,-132.8"/>
<polygon fill="black" stroke="black" points="1971.69,-136.3 1981.69,-132.8 1971.69,-129.3 1971.69,-136.3"/>
</g>
<!-- PrivateHomeComponent -->
<g id="node16" class="node">
<title>PrivateHomeComponent</title>
<polygon fill="#ffffb3" stroke="black" points="1694.7,-84.8 1539.3,-84.8 1539.3,-48.8 1694.7,-48.8 1694.7,-84.8"/>
<text text-anchor="middle" x="1617" y="-62.6" font-family="Times,serif" font-size="14.00">PrivateHomeComponent</text>
</g>
<!-- PrivateHomeComponent&#45;&gt;CoreModule -->
<g id="edge15" class="edge">
<title>PrivateHomeComponent&#45;&gt;CoreModule</title>
<path fill="none" stroke="black" d="M1617,-84.83C1617,-105.57 1617,-136.8 1617,-136.8 1617,-136.8 1971.72,-136.8 1971.72,-136.8"/>
<polygon fill="black" stroke="black" points="1971.72,-140.3 1981.72,-136.8 1971.72,-133.3 1971.72,-140.3"/>
</g>
<!-- PrivateNavbarComponent -->
<g id="node17" class="node">
<title>PrivateNavbarComponent</title>
<polygon fill="#ffffb3" stroke="black" points="3514.18,-84.8 3351.82,-84.8 3351.82,-48.8 3514.18,-48.8 3514.18,-84.8"/>
<text text-anchor="middle" x="3433" y="-62.6" font-family="Times,serif" font-size="14.00">PrivateNavbarComponent</text>
</g>
<!-- PrivateNavbarComponent&#45;&gt;CoreModule -->
<g id="edge16" class="edge">
<title>PrivateNavbarComponent&#45;&gt;CoreModule</title>
<path fill="none" stroke="black" d="M3433,-85.22C3433,-111.81 3433,-157.8 3433,-157.8 3433,-157.8 2078.29,-157.8 2078.29,-157.8"/>
<polygon fill="black" stroke="black" points="2078.29,-154.3 2068.29,-157.8 2078.29,-161.3 2078.29,-154.3"/>
</g>
<!-- PrivateFooterComponent -->
<g id="node18" class="node">
<title>PrivateFooterComponent</title>
<polygon fill="#ffffb3" stroke="black" points="3333.54,-84.8 3176.46,-84.8 3176.46,-48.8 3333.54,-48.8 3333.54,-84.8"/>
<text text-anchor="middle" x="3255" y="-62.6" font-family="Times,serif" font-size="14.00">PrivateFooterComponent</text>
</g>
<!-- PrivateFooterComponent&#45;&gt;CoreModule -->
<g id="edge17" class="edge">
<title>PrivateFooterComponent&#45;&gt;CoreModule</title>
<path fill="none" stroke="black" d="M3255,-84.83C3255,-110.31 3255,-153.8 3255,-153.8 3255,-153.8 2078.42,-153.8 2078.42,-153.8"/>
<polygon fill="black" stroke="black" points="2078.42,-150.3 2068.42,-153.8 2078.42,-157.3 2078.42,-150.3"/>
</g>
<!-- DashboardComponent -->
<g id="node19" class="node">
<title>DashboardComponent</title>
<polygon fill="#ffffb3" stroke="black" points="3157.97,-84.8 3016.03,-84.8 3016.03,-48.8 3157.97,-48.8 3157.97,-84.8"/>
<text text-anchor="middle" x="3087" y="-62.6" font-family="Times,serif" font-size="14.00">DashboardComponent</text>
</g>
<!-- DashboardComponent&#45;&gt;CoreModule -->
<g id="edge18" class="edge">
<title>DashboardComponent&#45;&gt;CoreModule</title>
<path fill="none" stroke="black" d="M3087,-85.03C3087,-109.73 3087,-150.8 3087,-150.8 3087,-150.8 2078.28,-150.8 2078.28,-150.8"/>
<polygon fill="black" stroke="black" points="2078.28,-147.3 2068.28,-150.8 2078.28,-154.3 2078.28,-147.3"/>
</g>
<!-- CommonModule  -->
<g id="node25" class="node">
<title>CommonModule </title>
<polygon fill="#fb8072" stroke="black" points="2082.67,-228.8 1967.33,-228.8 1967.33,-192.8 2082.67,-192.8 2082.67,-228.8"/>
<text text-anchor="middle" x="2025" y="-206.6" font-family="Times,serif" font-size="14.00">CommonModule </text>
</g>
<!-- CoreModule&#45;&gt;CommonModule  -->
<g id="edge24" class="edge">
<title>CoreModule&#45;&gt;CommonModule </title>
<path fill="none" stroke="black" stroke-dasharray="5,2" d="M2039.46,-161.02C2039.46,-161.02 2039.46,-182.53 2039.46,-182.53"/>
<polygon fill="black" stroke="black" points="2035.96,-182.53 2039.46,-192.53 2042.96,-182.53 2035.96,-182.53"/>
</g>
<!-- BrowserModule -->
<g id="node21" class="node">
<title>BrowserModule</title>
<polygon fill="#8dd3c7" stroke="black" points="836.47,-84.8 833.47,-88.8 812.47,-88.8 809.47,-84.8 729.53,-84.8 729.53,-48.8 836.47,-48.8 836.47,-84.8"/>
<text text-anchor="middle" x="783" y="-62.6" font-family="Times,serif" font-size="14.00">BrowserModule</text>
</g>
<!-- BrowserModule&#45;&gt;CoreModule -->
<g id="edge19" class="edge">
<title>BrowserModule&#45;&gt;CoreModule</title>
<path fill="none" stroke="black" d="M783,-85.04C783,-110.28 783,-152.8 783,-152.8 783,-152.8 1971.52,-152.8 1971.52,-152.8"/>
<polygon fill="black" stroke="black" points="1971.52,-156.3 1981.52,-152.8 1971.52,-149.3 1971.52,-156.3"/>
</g>
<!-- CommonModule -->
<g id="node22" class="node">
<title>CommonModule</title>
<polygon fill="#8dd3c7" stroke="black" points="711.67,-84.8 708.67,-88.8 687.67,-88.8 684.67,-84.8 600.33,-84.8 600.33,-48.8 711.67,-48.8 711.67,-84.8"/>
<text text-anchor="middle" x="656" y="-62.6" font-family="Times,serif" font-size="14.00">CommonModule</text>
</g>
<!-- CommonModule&#45;&gt;SharedModule -->
<g id="edge31" class="edge">
<title>CommonModule&#45;&gt;SharedModule</title>
<path fill="none" stroke="black" d="M599.85,-66.8C464.5,-66.8 131.32,-66.8 131.32,-66.8 131.32,-66.8 131.32,-142.8 131.32,-142.8 131.32,-142.8 130.46,-142.8 130.46,-142.8"/>
<polygon fill="black" stroke="black" points="132.72,-139.3 122.72,-142.8 132.72,-146.3 132.72,-139.3"/>
</g>
<!-- CommonModule&#45;&gt;CoreModule -->
<g id="edge20" class="edge">
<title>CommonModule&#45;&gt;CoreModule</title>
<path fill="none" stroke="black" d="M674.61,-85.01C674.61,-111.31 674.61,-156.8 674.61,-156.8 674.61,-156.8 1971.6,-156.8 1971.6,-156.8"/>
<polygon fill="black" stroke="black" points="1971.6,-160.3 1981.6,-156.8 1971.6,-153.3 1971.6,-160.3"/>
</g>
<!-- FeatureModuleDemoModule -->
<g id="node28" class="node">
<title>FeatureModuleDemoModule</title>
<polygon fill="#8dd3c7" stroke="black" points="3744.79,-160.8 3741.79,-164.8 3720.79,-164.8 3717.79,-160.8 3565.21,-160.8 3565.21,-124.8 3744.79,-124.8 3744.79,-160.8"/>
<text text-anchor="middle" x="3655" y="-138.6" font-family="Times,serif" font-size="14.00">FeatureModuleDemoModule</text>
</g>
<!-- CommonModule&#45;&gt;FeatureModuleDemoModule -->
<g id="edge27" class="edge">
<title>CommonModule&#45;&gt;FeatureModuleDemoModule</title>
<path fill="none" stroke="black" d="M637.39,-84.91C637.39,-94.7 637.39,-104.8 637.39,-104.8 637.39,-104.8 3625.12,-104.8 3625.12,-104.8 3625.12,-104.8 3625.12,-114.69 3625.12,-114.69"/>
<polygon fill="black" stroke="black" points="3621.62,-114.69 3625.12,-124.69 3628.62,-114.69 3621.62,-114.69"/>
</g>
<!-- BrowserAnimationsModule -->
<g id="node23" class="node">
<title>BrowserAnimationsModule</title>
<polygon fill="#8dd3c7" stroke="black" points="1163.3,-84.8 1160.3,-88.8 1139.3,-88.8 1136.3,-84.8 990.7,-84.8 990.7,-48.8 1163.3,-48.8 1163.3,-84.8"/>
<text text-anchor="middle" x="1077" y="-62.6" font-family="Times,serif" font-size="14.00">BrowserAnimationsModule</text>
</g>
<!-- BrowserAnimationsModule&#45;&gt;CoreModule -->
<g id="edge21" class="edge">
<title>BrowserAnimationsModule&#45;&gt;CoreModule</title>
<path fill="none" stroke="black" d="M1077,-84.89C1077,-107.93 1077,-144.8 1077,-144.8 1077,-144.8 1971.49,-144.8 1971.49,-144.8"/>
<polygon fill="black" stroke="black" points="1971.49,-148.3 1981.49,-144.8 1971.49,-141.3 1971.49,-148.3"/>
</g>
<!-- HttpClientModule -->
<g id="node24" class="node">
<title>HttpClientModule</title>
<polygon fill="#8dd3c7" stroke="black" points="973.16,-84.8 970.16,-88.8 949.16,-88.8 946.16,-84.8 854.84,-84.8 854.84,-48.8 973.16,-48.8 973.16,-84.8"/>
<text text-anchor="middle" x="914" y="-62.6" font-family="Times,serif" font-size="14.00">HttpClientModule</text>
</g>
<!-- HttpClientModule&#45;&gt;CoreModule -->
<g id="edge23" class="edge">
<title>HttpClientModule&#45;&gt;CoreModule</title>
<path fill="none" stroke="black" d="M914,-85C914,-109.16 914,-148.8 914,-148.8 914,-148.8 1971.45,-148.8 1971.45,-148.8"/>
<polygon fill="black" stroke="black" points="1971.45,-152.3 1981.45,-148.8 1971.45,-145.3 1971.45,-152.3"/>
</g>
<!-- HTTP_INTERCEPTOR_PROVIDERS -->
<g id="node26" class="node">
<title>HTTP_INTERCEPTOR_PROVIDERS</title>
<ellipse fill="#fdb462" stroke="black" cx="1351" cy="-66.8" rx="163.84" ry="18"/>
<text text-anchor="middle" x="1351" y="-62.6" font-family="Times,serif" font-size="14.00">HTTP_INTERCEPTOR_PROVIDERS</text>
</g>
<!-- HTTP_INTERCEPTOR_PROVIDERS&#45;&gt;CoreModule -->
<g id="edge25" class="edge">
<title>HTTP_INTERCEPTOR_PROVIDERS&#45;&gt;CoreModule</title>
<path fill="none" stroke="black" d="M1351,-85.09C1351,-107.01 1351,-140.8 1351,-140.8 1351,-140.8 1971.55,-140.8 1971.55,-140.8"/>
<polygon fill="black" stroke="black" points="1971.55,-144.3 1981.55,-140.8 1971.55,-137.3 1971.55,-144.3"/>
</g>
<!-- FeatureModuleDemoComponent -->
<g id="node27" class="node">
<title>FeatureModuleDemoComponent</title>
<polygon fill="#ffffb3" stroke="black" points="3755.57,-84.8 3554.43,-84.8 3554.43,-48.8 3755.57,-48.8 3755.57,-84.8"/>
<text text-anchor="middle" x="3655" y="-62.6" font-family="Times,serif" font-size="14.00">FeatureModuleDemoComponent</text>
</g>
<!-- FeatureModuleDemoComponent&#45;&gt;FeatureModuleDemoModule -->
<g id="edge26" class="edge">
<title>FeatureModuleDemoComponent&#45;&gt;FeatureModuleDemoModule</title>
<path fill="none" stroke="black" d="M3684.88,-84.81C3684.88,-84.81 3684.88,-114.65 3684.88,-114.65"/>
<polygon fill="black" stroke="black" points="3681.38,-114.65 3684.88,-124.65 3688.38,-114.65 3681.38,-114.65"/>
</g>
<!-- FeatureModuleDemoRoutingModule -->
<g id="node29" class="node">
<title>FeatureModuleDemoRoutingModule</title>
<polygon fill="#8dd3c7" stroke="black" points="4004.41,-84.8 4001.41,-88.8 3980.41,-88.8 3977.41,-84.8 3779.59,-84.8 3779.59,-48.8 4004.41,-48.8 4004.41,-84.8"/>
<text text-anchor="middle" x="3892" y="-62.6" font-family="Times,serif" font-size="14.00">FeatureModuleDemoRoutingModule</text>
</g>
<!-- FeatureModuleDemoRoutingModule&#45;&gt;FeatureModuleDemoModule -->
<g id="edge28" class="edge">
<title>FeatureModuleDemoRoutingModule&#45;&gt;FeatureModuleDemoModule</title>
<path fill="none" stroke="black" d="M3892,-84.81C3892,-107.29 3892,-142.8 3892,-142.8 3892,-142.8 3754.94,-142.8 3754.94,-142.8"/>
<polygon fill="black" stroke="black" points="3754.94,-139.3 3744.94,-142.8 3754.94,-146.3 3754.94,-139.3"/>
</g>
<!-- RouterModule  -->
<g id="node31" class="node">
<title>RouterModule </title>
<polygon fill="#fb8072" stroke="black" points="4145.65,-160.8 4044.35,-160.8 4044.35,-124.8 4145.65,-124.8 4145.65,-160.8"/>
<text text-anchor="middle" x="4095" y="-138.6" font-family="Times,serif" font-size="14.00">RouterModule </text>
</g>
<!-- FeatureModuleDemoRoutingModule&#45;&gt;RouterModule  -->
<g id="edge30" class="edge">
<title>FeatureModuleDemoRoutingModule&#45;&gt;RouterModule </title>
<path fill="none" stroke="black" stroke-dasharray="5,2" d="M4004.48,-72.8C4051.32,-72.8 4095,-72.8 4095,-72.8 4095,-72.8 4095,-114.77 4095,-114.77"/>
<polygon fill="black" stroke="black" points="4091.5,-114.77 4095,-124.77 4098.5,-114.77 4091.5,-114.77"/>
</g>
<!-- RouterModule.forChild(args) -->
<g id="node30" class="node">
<title>RouterModule.forChild(args)</title>
<polygon fill="#8dd3c7" stroke="black" points="4351.73,-160.8 4348.73,-164.8 4327.73,-164.8 4324.73,-160.8 4170.27,-160.8 4170.27,-124.8 4351.73,-124.8 4351.73,-160.8"/>
<text text-anchor="middle" x="4261" y="-138.6" font-family="Times,serif" font-size="14.00">RouterModule.forChild(args)</text>
</g>
<!-- RouterModule.forChild(args)&#45;&gt;FeatureModuleDemoRoutingModule -->
<g id="edge29" class="edge">
<title>RouterModule.forChild(args)&#45;&gt;FeatureModuleDemoRoutingModule</title>
<path fill="none" stroke="black" d="M4261,-124.6C4261,-100.44 4261,-60.8 4261,-60.8 4261,-60.8 4014.22,-60.8 4014.22,-60.8"/>
<polygon fill="black" stroke="black" points="4014.22,-57.3 4004.22,-60.8 4014.22,-64.3 4014.22,-57.3"/>
</g>
<!-- RouterModule -->
<g id="node32" class="node">
<title>RouterModule</title>
<polygon fill="#8dd3c7" stroke="black" points="121.65,-84.8 118.65,-88.8 97.65,-88.8 94.65,-84.8 24.35,-84.8 24.35,-48.8 121.65,-48.8 121.65,-84.8"/>
<text text-anchor="middle" x="73" y="-62.6" font-family="Times,serif" font-size="14.00">RouterModule</text>
</g>
<!-- RouterModule&#45;&gt;SharedModule -->
<g id="edge32" class="edge">
<title>RouterModule&#45;&gt;SharedModule</title>
<path fill="none" stroke="black" d="M73,-84.81C73,-84.81 73,-114.65 73,-114.65"/>
<polygon fill="black" stroke="black" points="69.5,-114.65 73,-124.65 76.5,-114.65 69.5,-114.65"/>
</g>
</g>
</svg>
